<?xml version="1.0" standalone="no"?>
<!DOCTYPE svg PUBLIC "-//W3C//DTD SVG 1.1//EN" "http://www.w3.org/Graphics/SVG/1.1/DTD/svg11.dtd" >
<svg xmlns="http://www.w3.org/2000/svg" xmlns:xlink="http://www.w3.org/1999/xlink" version="1.1">
<metadata></metadata>
<defs>
<font id="zurich_lt_btlight" horiz-adv-x="1024" >
<font-face units-per-em="2048" ascent="1556" descent="-492" />
<missing-glyph horiz-adv-x="567" />
<glyph unicode="&#xd;" horiz-adv-x="567" />
<glyph unicode=" "  horiz-adv-x="567" />
<glyph unicode="&#x09;" horiz-adv-x="567" />
<glyph unicode="&#xa0;" horiz-adv-x="567" />
<glyph unicode="!" horiz-adv-x="735" d="M309 350l-20 1125h157l-20 -1125h-117zM289 0v170h157v-170h-157z" />
<glyph unicode="&#x22;" horiz-adv-x="551" d="M451 1434v-553h-86v553h86zM186 1434v-553h-86v553h86z" />
<glyph unicode="#" horiz-adv-x="1575" d="M979 866h-270l-99 -282h269zM915 1454l-174 -498h271l176 498h110l-174 -498h322l-31 -90h-323l-101 -282h348l-30 -90h-351l-174 -494h-112l176 494h-270l-179 -494h-110l174 494h-334l31 90h336l100 282h-360l28 90h365l176 498h110z" />
<glyph unicode="$" horiz-adv-x="1133" d="M602 647v-541q156 16 239 86.5t83 188.5q0 91 -76.5 154.5t-245.5 111.5zM217 373v-4q0 -122 76 -188.5t225 -75.5v567q-223 62 -316 152t-93 241t110 249t299 113v136h84v-133q203 -10 310 -93t112 -233h-123q-11 102 -84 155t-214 62l-1 -543q257 -70 355 -159t98 -244 q0 -168 -119 -267t-334 -110v-145h-84v143q-211 9 -325.5 106t-114.5 267v4h139zM518 805v514q-130 -11 -204 -77t-74 -171q0 -96 65 -159t213 -107z" />
<glyph unicode="%" horiz-adv-x="1999" d="M1303 367q0 -138 54.5 -215.5t149.5 -77.5q96 0 150.5 77.5t54.5 215.5q0 136 -54.5 213t-150.5 77q-95 0 -149.5 -77t-54.5 -213zM1186 365q0 174 89 281.5t232 107.5q144 0 233 -107t89 -282t-89.5 -282.5t-232.5 -107.5t-232 107.5t-89 282.5zM1343 1450h113 l-801 -1475h-112zM287 1063q0 -137 54.5 -214t150.5 -77q95 0 149.5 77t54.5 214t-54.5 215t-149.5 78q-96 0 -150.5 -78t-54.5 -215zM170 1063q0 174 89 280.5t233 106.5t232.5 -106t88.5 -281q0 -174 -89 -281.5t-232 -107.5q-144 0 -233 107.5t-89 281.5z" />
<glyph unicode="&#x26;" horiz-adv-x="1130" d="M784 702h-245q-164 0 -249 -75.5t-85 -220.5q0 -155 77.5 -223t256.5 -68h245v587zM918 1038v-223h165v-113h-165v-702h-396q-120 0 -179 10.5t-103 34.5q-85 43 -131 132t-46 210q0 146 68.5 239t202.5 130q-116 20 -180 108t-64 228q0 192 127.5 290.5t378.5 98.5 q29 0 59.5 -1.5t63.5 -5.5v-110h-158q-178 0 -258 -65.5t-80 -208.5q0 -139 75.5 -207t229.5 -68h256v223h134z" />
<glyph unicode="'" horiz-adv-x="285" d="M186 1434v-553h-86v553h86z" />
<glyph unicode="(" horiz-adv-x="563" d="M315 -274q-116 282 -174.5 507.5t-58.5 395.5q0 144 57.5 360.5t173.5 507.5h88q-89 -262 -136.5 -486t-47.5 -384q0 -172 46 -394.5t140 -506.5h-88z" />
<glyph unicode=")" horiz-adv-x="563" d="M248 1497q118 -285 176.5 -510.5t58.5 -392.5q0 -143 -57.5 -358t-175.5 -510h-88q89 262 136.5 485.5t47.5 384.5q0 174 -45.5 395t-140.5 506h88z" />
<glyph unicode="*" horiz-adv-x="1063" d="M668 1497l102 -57l-178 -262l315 24v-117l-315 23l178 -260l-102 -60l-138 285l-137 -285l-100 60l178 260l-315 -23v117l315 -24l-178 262l100 57l137 -283z" />
<glyph unicode="+" horiz-adv-x="1706" d="M893 1221v-570h559v-82h-559v-569h-80v569h-559v82h559v570h80z" />
<glyph unicode="," horiz-adv-x="567" d="M162 -209l78 377h163l-129 -377h-112z" />
<glyph unicode="-" horiz-adv-x="569" d="M31 457v114h506v-114h-506z" />
<glyph unicode="." horiz-adv-x="567" d="M203 0v178h159v-178h-159z" />
<glyph unicode="/" horiz-adv-x="569" d="M12 -141l520 1636h103l-520 -1636h-103z" />
<glyph unicode="0" horiz-adv-x="1133" d="M238 713q0 -317 81 -471t248 -154t248.5 154t81.5 471t-81.5 470.5t-248.5 153.5t-248 -153.5t-81 -470.5zM100 713q0 365 118 551t349 186q232 0 349.5 -186t117.5 -551q0 -366 -117.5 -552t-349.5 -186q-231 0 -349 186t-118 552z" />
<glyph unicode="1" horiz-adv-x="1133" d="M571 0v1278q-93 -78 -171.5 -130.5t-141.5 -78.5v129q76 37 155 93.5t162 135.5h125v-1427h-129z" />
<glyph unicode="2" horiz-adv-x="1133" d="M111 0v147q377 333 552 556.5t175 371.5q0 117 -76 189.5t-199 72.5q-129 0 -206.5 -77t-82.5 -211h-155q6 185 125 294t315 109q195 0 311.5 -99t116.5 -263q0 -171 -157.5 -387.5t-548.5 -573.5h727v-129h-897z" />
<glyph unicode="3" horiz-adv-x="1133" d="M213 375q6 -133 93.5 -207t238.5 -74q158 0 252 80.5t94 214.5q0 140 -96.5 216.5t-272.5 76.5q-20 0 -30.5 -0.5t-20.5 -1.5v113q8 0 23 -1t22 -1q171 0 263.5 72.5t92.5 205.5q0 125 -89 198.5t-240 73.5q-140 0 -221.5 -70.5t-94.5 -201.5h-132q9 172 133.5 276.5 t320.5 104.5q203 0 331 -109t128 -280q0 -124 -77 -206.5t-224 -117.5q158 -35 239.5 -126.5t81.5 -233.5q0 -177 -134 -289.5t-349 -112.5q-212 0 -339 107t-134 293h141z" />
<glyph unicode="4" horiz-adv-x="1133" d="M725 440v867l-561 -867h561zM725 0v328h-674v143l625 956h184v-987h219v-112h-219v-328h-135z" />
<glyph unicode="5" horiz-adv-x="1133" d="M256 346q14 -126 92.5 -193t212.5 -67q158 0 249 100t91 273q0 167 -86 264.5t-233 97.5q-113 0 -192.5 -58t-115.5 -167h-131l29 831h789v-110h-660l-20 -539q66 76 146.5 113t180.5 37q192 0 308 -130.5t116 -346.5q0 -223 -127 -349.5t-352 -126.5q-202 0 -319 100 t-117 271h139z" />
<glyph unicode="6" horiz-adv-x="1133" d="M258 438q0 -159 90.5 -253.5t243.5 -94.5q144 0 229.5 94.5t85.5 255.5q0 170 -82 264.5t-229 94.5q-152 0 -245 -99t-93 -262zM229 680q56 114 156.5 174.5t235.5 60.5q189 0 308.5 -131t119.5 -342q0 -218 -126 -342.5t-348 -124.5q-241 0 -362 174t-121 523 q0 395 125 585.5t383 190.5q192 0 305.5 -99t116.5 -267l-139 -1q-10 119 -84.5 183.5t-200.5 64.5q-183 0 -272.5 -157.5t-96.5 -491.5z" />
<glyph unicode="7" horiz-adv-x="1133" d="M297 0l563 1305h-770v122h897v-141l-534 -1286h-156z" />
<glyph unicode="8" horiz-adv-x="1133" d="M401 739q-140 29 -217.5 114.5t-77.5 211.5q0 174 127.5 280.5t337.5 106.5q204 0 329.5 -107.5t125.5 -279.5q0 -126 -77.5 -211.5t-217.5 -114.5q153 -35 236.5 -131t83.5 -239q0 -176 -133 -285t-351 -109t-351.5 109t-133.5 285q0 143 83 239t236 131zM233 1071 q0 -126 90.5 -201t243.5 -75q157 0 244.5 73t87.5 203q0 121 -91.5 196.5t-240.5 75.5q-148 0 -241 -76t-93 -196zM215 389q0 -134 97 -216.5t253 -82.5q161 0 257 82t96 219q0 133 -96.5 213t-256.5 80t-254 -79t-96 -216z" />
<glyph unicode="9" horiz-adv-x="1133" d="M209 991q0 -152 83 -242t224 -90q158 0 254 92t96 242q0 151 -91 245.5t-238 94.5q-144 0 -236 -96t-92 -246zM891 762q-46 -99 -147.5 -157t-227.5 -58q-197 0 -317.5 120.5t-120.5 317.5q0 209 126.5 337t332.5 128q252 0 373.5 -173t121.5 -534q0 -386 -124 -577 t-376 -191q-200 0 -321.5 99.5t-126.5 267.5h137q11 -121 92.5 -188.5t216.5 -67.5q183 0 273 150t90 454q0 11 -1 35t-1 37z" />
<glyph unicode=":" horiz-adv-x="735" d="M289 850v178h157v-178h-157zM289 0v178h157v-178h-157z" />
<glyph unicode=";" horiz-adv-x="735" d="M289 850v178h157v-178h-157zM219 -209l78 377h164l-129 -377h-113z" />
<glyph unicode="&#x3c;" horiz-adv-x="1706" d="M1442 1034l-1045 -424l1045 -424v-88l-1178 482v61l1178 483v-90z" />
<glyph unicode="=" horiz-adv-x="1706" d="M1452 469v-82h-1198v82h1198zM1452 831v-79h-1198v79h1198z" />
<glyph unicode="&#x3e;" horiz-adv-x="1706" d="M1442 641v-61l-1178 -482v88l1045 424l-1045 424v90z" />
<glyph unicode="?" horiz-adv-x="995" d="M322 0v170h159v-170h-159zM342 356v158q0 128 157 278l6 6q119 113 162.5 187.5t43.5 153.5q0 119 -86.5 191.5t-229.5 72.5q-47 0 -98 -7.5t-104 -23.5v109q60 10 114.5 15t104.5 5q204 0 318 -95.5t114 -266.5q0 -173 -211 -379l-21 -21l-36 -36q-117 -113 -117 -187 v-160h-117z" />
<glyph unicode="@" horiz-adv-x="2048" d="M1303 827l61 129h80l-137 -553q-10 -36 -15.5 -64.5t-5.5 -43.5q0 -44 30.5 -68t86.5 -24q48 0 100 19.5t103 56.5q101 74 162 207t61 282q0 273 -199.5 439.5t-525.5 166.5q-168 0 -310.5 -48t-258.5 -144q-154 -128 -232 -297t-78 -375q0 -327 221.5 -522t591.5 -195 q161 0 324 50.5t299 142.5l29 -45q-146 -110 -308.5 -165t-339.5 -55q-187 0 -343 46.5t-277 138.5q-152 115 -226.5 267.5t-74.5 348.5q0 162 50.5 307t147.5 265q144 175 345.5 265.5t449.5 90.5q160 0 304.5 -44t248.5 -124q128 -98 194 -226.5t66 -277.5 q0 -169 -63 -308t-181 -232q-67 -54 -145.5 -82.5t-159.5 -28.5q-95 0 -143.5 36.5t-48.5 108.5q0 12 3 34q1 3 1 5q-49 -88 -125 -136t-166 -48q-154 0 -233.5 83t-79.5 243q0 228 134.5 386t326.5 158q95 0 160 -43t96 -127zM1219 467l63 254q-22 99 -81.5 151t-151.5 52 q-152 0 -255.5 -138t-103.5 -340q0 -115 57.5 -180t159.5 -65q111 0 196 72.5t116 193.5z" />
<glyph unicode="A" horiz-adv-x="1348" d="M348 514h641l-321 842zM16 0l574 1475h162l579 -1475h-145l-156 403h-721l-155 -403h-138z" />
<glyph unicode="B" horiz-adv-x="1352" d="M330 119h321q190 0 298 76.5t108 210.5q0 156 -104.5 230.5t-323.5 74.5h-299v-592zM330 821h264q213 0 306 65t93 212q0 132 -96 195t-301 63h-266v-535zM201 0v1475h374q278 0 418 -93.5t140 -279.5q0 -124 -72 -209t-205 -119q163 -29 253.5 -125.5t90.5 -240.5 q0 -202 -149.5 -305t-442.5 -103h-407z" />
<glyph unicode="C" horiz-adv-x="1352" d="M1274 350q-36 -181 -171 -278t-351 -97q-289 0 -450 200t-161 560q0 361 167.5 561.5t467.5 200.5q208 0 335.5 -97t148.5 -270h-142q-15 120 -108 188t-242 68q-224 0 -352.5 -175.5t-128.5 -483.5q0 -292 131 -463.5t354 -171.5q145 0 240.5 69.5t115.5 188.5h146z" />
<glyph unicode="D" horiz-adv-x="1475" d="M332 1356v-1231h256q316 0 467 150t151 462q0 317 -150.5 468t-467.5 151h-256zM201 1475h399q369 0 558.5 -187t189.5 -551t-189.5 -550.5t-558.5 -186.5h-399v1475z" />
<glyph unicode="E" horiz-adv-x="1239" d="M201 0v1475h870v-117h-737v-539h708v-110h-708v-588h766v-121h-899z" />
<glyph unicode="F" horiz-adv-x="1130" d="M201 0v1475h827v-117h-696v-537h672v-112h-672v-709h-131z" />
<glyph unicode="G" horiz-adv-x="1466" d="M1288 55q-143 -41 -258.5 -60.5t-218.5 -19.5q-324 0 -499 198t-175 564q0 352 174.5 556t474.5 204q208 0 338 -100.5t158 -282.5h-145q-20 128 -117.5 202.5t-245.5 74.5q-226 0 -359.5 -177t-133.5 -479q0 -307 141.5 -476t398.5 -169q72 0 156.5 15t183.5 45v475 h-368v118h495v-688z" />
<glyph unicode="H" horiz-adv-x="1464" d="M201 0v1475h131v-656h798v656h132v-1475h-132v705h-798v-705h-131z" />
<glyph unicode="I" horiz-adv-x="537" d="M201 0v1475h133v-1475h-133z" />
<glyph unicode="J" horiz-adv-x="1012" d="M158 354q10 -118 82.5 -188t183.5 -70q133 0 199.5 83t66.5 249v1047h131v-1088q0 -199 -103 -305.5t-294 -106.5q-183 0 -288.5 98t-121.5 281h144z" />
<glyph unicode="K" horiz-adv-x="1239" d="M201 0v1475h131v-654l653 654h166l-678 -674l739 -801h-170l-710 774v-774h-131z" />
<glyph unicode="L" horiz-adv-x="1126" d="M201 0v1475h133v-1356h735v-119h-868z" />
<glyph unicode="M" horiz-adv-x="1915" d="M201 0v1475h192l576 -1282l544 1282h201v-1475h-125v1343l-573 -1343h-96l-592 1315v-1315h-127z" />
<glyph unicode="N" horiz-adv-x="1487" d="M201 0v1475h147l813 -1291v1291h125v-1475h-162l-798 1270v-1270h-125z" />
<glyph unicode="O" horiz-adv-x="1579" d="M279 737q0 -296 138 -470.5t371 -174.5q234 0 373 175t139 470t-138.5 469t-373.5 174q-233 0 -371 -173.5t-138 -469.5zM137 737q0 349 177 554.5t474 205.5q298 0 476 -206.5t178 -553.5t-178 -554.5t-476 -207.5q-297 0 -474 207t-177 555z" />
<glyph unicode="P" horiz-adv-x="1241" d="M336 766h307q196 0 291.5 73.5t95.5 223.5q0 155 -93 224t-304 69h-297v-590zM203 0v1475h352q189 0 282.5 -18t157.5 -60q86 -55 132.5 -140.5t46.5 -187.5q0 -212 -146 -317t-440 -105h-252v-647h-133z" />
<glyph unicode="Q" horiz-adv-x="1579" d="M1495 0h-461q-39 0 -119.5 -9t-121.5 -9q-305 0 -480.5 202t-175.5 553q0 348 177 554t474 206q299 0 476.5 -206t177.5 -554q0 -210 -67 -369t-189 -243h309v-125zM279 739q0 -295 138 -470t371 -175q234 0 373 175t139 470q0 296 -139 470.5t-373 174.5 q-233 0 -371 -174.5t-138 -470.5z" />
<glyph unicode="R" horiz-adv-x="1356" d="M330 819h272q225 0 328.5 67.5t103.5 213.5q0 137 -86.5 197.5t-288.5 60.5h-329v-539zM201 0v1475h452q265 0 394 -88.5t129 -270.5q0 -132 -74 -219.5t-215 -124.5q95 -15 147.5 -59t77.5 -129q17 -59 36.5 -260.5t63.5 -323.5h-149q-28 88 -46.5 270.5t-37.5 268.5 q-21 94 -69.5 130t-149.5 36h-430v-705h-129z" />
<glyph unicode="S" horiz-adv-x="1241" d="M258 380q3 -138 96 -212t267 -74q164 0 267 78.5t103 202.5q0 64 -26.5 113.5t-83.5 89.5q-37 25 -174 71q-85 27 -134 45q-239 86 -329 176.5t-90 231.5q0 172 129.5 280.5t339.5 108.5q219 0 342.5 -86.5t134.5 -249.5h-135q-8 112 -91.5 171.5t-232.5 59.5 q-160 0 -256 -74.5t-96 -197.5q0 -100 68.5 -162t310.5 -145q16 -6 47 -17q219 -75 284 -133q63 -55 93 -121.5t30 -150.5q0 -185 -136 -293t-370 -108q-232 0 -356.5 98.5t-142.5 298.5z" />
<glyph unicode="T" horiz-adv-x="1135" d="M500 0v1356h-471v119h1077v-119h-469v-1356h-137z" />
<glyph unicode="U" horiz-adv-x="1460" d="M199 586v889h131v-861q0 -273 97.5 -398.5t307.5 -125.5q205 0 307.5 130t102.5 390v865h117v-865q0 -188 -23.5 -279t-77.5 -163q-71 -95 -181 -144t-251 -49q-264 0 -397 153.5t-133 457.5z" />
<glyph unicode="V" horiz-adv-x="1241" d="M553 0l-539 1475h146l475 -1325l463 1325h129l-525 -1475h-149z" />
<glyph unicode="W" horiz-adv-x="2009" d="M406 0l-386 1475h130l346 -1328l432 1328h145l447 -1325l335 1325h130l-379 -1475h-166l-439 1307l-428 -1307h-167z" />
<glyph unicode="X" horiz-adv-x="1217" d="M10 0l518 762l-485 713h154l405 -611l428 611h152l-502 -707l524 -768h-151l-449 659l-440 -659h-154z" />
<glyph unicode="Y" horiz-adv-x="1239" d="M561 0v633l-538 842h161l449 -711l442 711h142l-523 -832v-643h-133z" />
<glyph unicode="Z" horiz-adv-x="1126" d="M33 0v139l872 1221h-817v115h971v-127l-885 -1227h909v-121h-1050z" />
<glyph unicode="[" horiz-adv-x="563" d="M170 -311v1786h295v-82h-180v-1620h180v-84h-295z" />
<glyph unicode="\" horiz-adv-x="569" d="M555 -141h-102l-521 1636h103z" />
<glyph unicode="]" horiz-adv-x="563" d="M393 1475v-1786h-293v84h181v1620h-181v82h293z" />
<glyph unicode="^" horiz-adv-x="2048" d="M1081 1458l541 -557h-125l-473 469l-475 -469h-125l539 557h118z" />
<glyph unicode="_" d="M1024 -403v-80h-1024v80h1024z" />
<glyph unicode="`" d="M545 1163l-269 348h152l209 -348h-92z" />
<glyph unicode="a" horiz-adv-x="1059" d="M766 528h-150q-191 0 -294 -63t-103 -178q0 -93 63.5 -149t170.5 -56q135 0 224 85.5t89 213.5v147zM788 0l-10 172q-55 -95 -143.5 -145t-202.5 -50q-155 0 -245.5 83.5t-90.5 226.5q0 157 131 247.5t361 90.5h178v120q0 102 -64 155.5t-184 53.5q-112 0 -177.5 -48.5 t-72.5 -135.5h-129q16 136 113 208.5t264 72.5q91 0 162 -20t117 -58q56 -46 79 -110t23 -220v-448q0 -42 4 -90.5t12 -104.5h-125z" />
<glyph unicode="b" horiz-adv-x="1192" d="M944 510q0 208 -81 321t-230 113q-151 0 -238.5 -114.5t-87.5 -313.5q0 -205 85 -320.5t235 -115.5q149 0 233 114t84 316zM305 862q69 100 152.5 145.5t197.5 45.5q196 0 308 -144.5t112 -398.5q0 -243 -117 -388t-313 -145q-112 0 -194 46.5t-148 146.5l-6 -170h-129 q2 49 5 124q5 121 5 138v1213h127v-613z" />
<glyph unicode="c" horiz-adv-x="1067" d="M965 313q-13 -161 -115 -249.5t-277 -88.5q-212 0 -333 140t-121 387q0 266 117.5 408.5t336.5 142.5q176 0 279.5 -92t110.5 -252h-140q-7 112 -77 178.5t-179 66.5q-152 0 -232.5 -114.5t-80.5 -331.5q0 -209 79 -315.5t234 -106.5q109 0 177 58.5t87 168.5h134z" />
<glyph unicode="d" horiz-adv-x="1192" d="M1012 1475v-1213q0 -11 4.5 -98t7.5 -164h-129l-6 170q-66 -100 -148 -146.5t-194 -46.5q-196 0 -313 145t-117 388q0 254 114 397.5t314 143.5q110 0 194.5 -47t147.5 -144v615h125zM885 516q0 199 -87.5 313.5t-238.5 114.5q-149 0 -230 -113t-81 -321q0 -202 84 -316 t233 -114q150 0 235 115.5t85 320.5z" />
<glyph unicode="e" horiz-adv-x="1130" d="M264 598h647q-9 166 -95 260t-228 94q-137 0 -220 -90.5t-104 -263.5zM1034 326q-23 -165 -140.5 -258t-303.5 -93q-215 0 -343 144t-128 387q0 247 131 397t346 150q206 0 329.5 -140.5t123.5 -375.5v-37h-789q0 -200 91 -310t255 -110q115 0 198.5 67.5t102.5 178.5 h127z" />
<glyph unicode="f" horiz-adv-x="680" d="M250 0v930h-199v98h199v246q0 114 57.5 169.5t173.5 55.5q20 0 52.5 -3t78.5 -9v-105l-7 1q-57 3 -81 3q-87 0 -117 -28.5t-30 -114.5v-215h235v-98h-235v-930h-127z" />
<glyph unicode="g" horiz-adv-x="1192" d="M248 535q0 -204 80.5 -313t230.5 -109q151 0 238.5 111t87.5 302q0 200 -86.5 312t-239.5 112q-145 0 -228 -110.5t-83 -304.5zM1012 86q0 -255 -109 -373.5t-342 -118.5q-195 0 -299 74.5t-110 218.5h139q5 -91 74 -137.5t198 -46.5q159 0 241.5 86.5t82.5 253.5v154 q-64 -97 -149.5 -143t-200.5 -46q-195 0 -307.5 141t-112.5 386q0 235 117 375.5t313 140.5q112 0 194 -45t148 -142l6 164h129q-6 -97 -9 -163.5t-3 -98.5v-680z" />
<glyph unicode="h" horiz-adv-x="1155" d="M182 0v1475h125v-619q74 94 155.5 139t176.5 45q178 0 263 -99.5t85 -307.5v-633h-127v618q0 162 -57 236t-180 74q-139 0 -227.5 -90t-88.5 -234v-604h-125z" />
<glyph unicode="i" horiz-adv-x="477" d="M162 1309v168h153v-168h-153zM174 0v1028h127v-1028h-127z" />
<glyph unicode="j" horiz-adv-x="477" d="M168 1307v168h154v-168h-154zM180 -86v1114h127v-1214q0 -116 -51 -165.5t-170 -49.5q-26 0 -40 0.5t-25 1.5l-1 104q97 0 128.5 36t31.5 173z" />
<glyph unicode="k" horiz-adv-x="1020" d="M176 0v1475h125v-873l481 426h164l-508 -444l551 -584h-176l-512 551v-551h-125z" />
<glyph unicode="l" horiz-adv-x="477" d="M174 0v1475h127v-1475h-127z" />
<glyph unicode="m" horiz-adv-x="1823" d="M182 0v793q0 50 -1.5 103t-6.5 132h125l6 -174q75 96 156 141t176 45q122 0 203 -52.5t118 -156.5q84 110 168 159.5t183 49.5q175 0 259.5 -99t84.5 -308v-633h-125v618q0 162 -56.5 236t-179.5 74q-137 0 -225 -90t-88 -234v-604h-125v618q0 163 -56 236.5t-177 73.5 q-138 0 -226 -90t-88 -234v-604h-125z" />
<glyph unicode="n" horiz-adv-x="1155" d="M182 0v793q0 50 -1.5 103t-6.5 132h125l6 -174q74 93 158 139.5t176 46.5q179 0 263.5 -98.5t84.5 -308.5v-633h-127v618q0 166 -55.5 238t-181.5 72q-138 0 -227 -90t-89 -234v-604h-125z" />
<glyph unicode="o" horiz-adv-x="1180" d="M252 514q0 -198 90.5 -312t247.5 -114q155 0 246.5 114.5t91.5 311.5q0 198 -91 312t-247 114q-157 0 -247.5 -114t-90.5 -312zM119 514q0 240 131.5 389.5t339.5 149.5t339.5 -149.5t131.5 -389.5t-131.5 -389.5t-339.5 -149.5t-339.5 149.5t-131.5 389.5z" />
<glyph unicode="p" horiz-adv-x="1192" d="M307 512q0 -199 87.5 -312.5t238.5 -113.5q149 0 230 113t81 321q0 202 -84 315t-233 113q-150 0 -235 -115.5t-85 -320.5zM178 -389v1155q0 17 -5 138q-3 75 -5 124h129l6 -170q66 100 148 146.5t194 46.5q196 0 313 -145t117 -388q0 -250 -113.5 -395.5t-306.5 -145.5 q-116 0 -200.5 46.5t-149.5 146.5v-559h-127z" />
<glyph unicode="q" horiz-adv-x="1192" d="M1012 -389h-127v559q-65 -100 -149.5 -146.5t-200.5 -46.5q-193 0 -305.5 145.5t-112.5 395.5q0 244 116 388.5t312 144.5q112 0 195 -46.5t149 -146.5l6 170h129q-3 -77 -7.5 -164t-4.5 -98v-1155zM885 512q0 204 -86 320t-236 116q-149 0 -232 -112.5t-83 -315.5 q0 -208 81 -321t230 -113q151 0 238.5 113.5t87.5 312.5z" />
<glyph unicode="r" horiz-adv-x="688" d="M182 0v780q0 23 -1.5 68t-8.5 180h127l8 -158q43 83 114 123.5t173 40.5q11 0 24 -0.5t41 -3.5v-121q-15 1 -30.5 1.5t-36.5 0.5q-132 0 -206.5 -82.5t-74.5 -228.5v-600h-129z" />
<glyph unicode="s" horiz-adv-x="1034" d="M238 272q6 -93 75.5 -144.5t190.5 -51.5q131 0 209 56.5t78 148.5q0 69 -47 109.5t-195 80.5q-29 8 -80 21q-166 44 -211 71q-61 39 -90 89t-29 116q0 134 100 210.5t275 76.5t269.5 -72t98.5 -207h-130q-8 92 -68.5 137t-175.5 45q-117 0 -182.5 -45.5t-65.5 -126.5 q0 -114 275 -181q35 -9 53 -13q195 -50 264.5 -115t69.5 -182q0 -148 -112 -235t-304 -87q-188 0 -290.5 77t-109.5 222h132z" />
<glyph unicode="t" horiz-adv-x="678" d="M369 268q0 -100 32.5 -141t108.5 -41q26 0 53.5 4.5t56.5 13.5v-112q-43 -9 -78.5 -14t-60.5 -5q-120 0 -179.5 60t-59.5 180v717h-201v98h201v215l127 55v-270h231v-98h-231v-662z" />
<glyph unicode="u" horiz-adv-x="1155" d="M973 1028v-792q0 -51 1.5 -104t5.5 -132h-122l-6 162q-76 -95 -158 -140t-178 -45q-178 0 -262 99t-84 307v645h125v-629q0 -161 57 -235t180 -74q140 0 228 89t88 233v616h125z" />
<glyph unicode="v" horiz-adv-x="995" d="M449 0l-420 1028h131l346 -864l332 864h131l-418 -1028h-102z" />
<glyph unicode="w" horiz-adv-x="1659" d="M399 0l-370 1028h129l297 -864l319 864h131l297 -864l303 864h125l-379 -1028h-112l-303 889l-328 -889h-109z" />
<glyph unicode="x" horiz-adv-x="999" d="M35 0l391 526l-375 502h148l303 -403l299 403h133l-367 -493l400 -535h-154l-319 438l-328 -438h-131z" />
<glyph unicode="y" horiz-adv-x="1014" d="M451 4l-426 1024h153l340 -852l340 852h133l-422 -1040l-143 -377h-131z" />
<glyph unicode="z" horiz-adv-x="907" d="M84 0v125l580 799h-564v104h709v-121l-571 -796h585v-111h-739z" />
<glyph unicode="{" d="M848 1389h-37q-135 0 -182 -51.5t-47 -213.5v-241q0 -175 -43 -248t-152 -105q109 -32 152 -104t43 -248v-241q0 -162 46.5 -212.5t180.5 -50.5h39v-88h-43q-189 0 -257.5 74.5t-68.5 300.5v240q0 158 -58 222t-200 64q-7 0 -21.5 -1t-23.5 -1v90q10 -1 20.5 -1.5 t28.5 -0.5q139 0 196.5 64.5t57.5 222.5v240q0 227 68.5 302t257.5 75h43v-88z" />
<glyph unicode="|" d="M557 1565v-2048h-90v2048h90z" />
<glyph unicode="}" d="M545 1100v-240q0 -158 58 -222.5t200 -64.5q7 0 21.5 1t23.5 1v-90q-9 0 -23.5 1t-21.5 1q-142 0 -200 -64t-58 -222v-240q0 -226 -68.5 -300.5t-257.5 -74.5h-43v88h39q134 0 180.5 50.5t46.5 212.5v241q0 174 43.5 247t153.5 105q-110 32 -153.5 105t-43.5 248v241 q0 162 -47 213.5t-182 51.5h-37v88h43q189 0 257.5 -75t68.5 -302z" />
<glyph unicode="~" horiz-adv-x="1706" d="M1530 647q-106 -74 -202 -110.5t-185 -36.5q-99 0 -266 61q-16 6 -22 8q-12 4 -33 12q-167 60 -257 60q-83 0 -175 -37.5t-212 -122.5v92q105 74 201 110t186 36q100 0 271 -61q12 -5 19 -7q8 -3 27 -10q168 -61 261 -61q83 0 175 37.5t212 121.5v-92z" />
<glyph unicode="&#xa1;" horiz-adv-x="735" d="M426 1124l20 -1124h-157l20 1124h117zM446 1475v-170h-157v170h157z" />
<glyph unicode="&#xa2;" horiz-adv-x="1133" d="M403 168l232 827q-17 3 -33.5 4.5t-34.5 1.5q-146 0 -224.5 -117t-78.5 -335q0 -146 33 -235.5t106 -145.5zM973 350q-13 -168 -116.5 -259t-283.5 -91q-26 0 -56 4t-64 12l-80 -282l-84 22l82 291q-125 76 -184.5 196.5t-59.5 297.5q0 268 117.5 414.5t330.5 146.5 q20 0 43 -1.5t45 -4.5l70 252l84 -27l-67 -246q105 -38 160.5 -119t60.5 -202h-137q-5 70 -33.5 122t-83.5 87l-234 -834q34 -8 54.5 -11t35.5 -3q111 0 179 60t88 175h133z" />
<glyph unicode="&#xa3;" horiz-adv-x="1133" d="M125 0v123h119v633h-148v110h148v135q0 215 116 332t328 117q180 0 285 -86t106 -233h-141q-5 101 -71 156.5t-181 55.5q-143 0 -222 -88t-79 -247v-142h324v-110h-324v-633h653v-123h-913z" />
<glyph unicode="&#xa4;" horiz-adv-x="1133" d="M1083 350q-29 -179 -144 -277t-296 -98q-210 0 -339.5 149.5t-164.5 432.5h-141l45 100l90 1q-1 19 -1.5 37.5t-0.5 39.5q0 25 4 81v5h-166l45 101h127q40 284 172 429.5t351 145.5q174 0 283 -97.5t126 -269.5h-135q-12 123 -84.5 187.5t-196.5 64.5q-154 0 -249.5 -116 t-128.5 -344h565l-47 -101h-525q-2 -25 -3 -46t-1 -40q0 -14 1 -31t3 -46l451 -1l-47 -100h-397q27 -232 122 -349.5t254 -117.5q123 0 201 69.5t92 190.5h135z" />
<glyph unicode="&#xa5;" horiz-adv-x="1126" d="M498 0v604h-484v76h441l-138 219h-303v76h256l-288 452h147l438 -700l432 700h131l-280 -452h256v-76h-303l-137 -219h440v-76h-477v-604h-131z" />
<glyph unicode="&#xa6;" d="M557 408v-758h-90v758h90zM557 1432v-758h-90v758h90z" />
<glyph unicode="&#xa7;" horiz-adv-x="1063" d="M541 573q98 55 140 99.5t42 91.5q0 50 -46.5 87.5t-178.5 86.5q-84 -36 -131.5 -86t-47.5 -102q0 -56 52 -98t170 -79zM215 135q57 -24 117 -36.5t123 -12.5q127 0 203.5 48.5t76.5 129.5q0 107 -221 188l-57 21q-148 55 -208.5 111.5t-60.5 134.5q0 77 59.5 145 t164.5 111q-101 53 -149 115t-48 139q0 118 94 194t244 76q31 0 80 -7t162 -28v-110q-79 20 -128.5 28.5t-86.5 8.5q-108 0 -169 -42t-61 -116q0 -94 183 -171q24 -10 37 -16q188 -80 239 -131.5t51 -126.5t-56 -139t-159 -104q123 -49 175 -111t52 -158q0 -140 -105 -220.5 t-290 -80.5q-60 0 -126 11.5t-136 33.5v115z" />
<glyph unicode="&#xa8;" d="M602 1241v162h141v-162h-141zM281 1241v162h141v-162h-141z" />
<glyph unicode="&#xa9;" horiz-adv-x="1706" d="M1081 918q-20 81 -79.5 126.5t-147.5 45.5q-126 0 -196 -97.5t-70 -273.5q0 -169 71.5 -267t194.5 -98q91 0 156 52.5t84 140.5h102q-11 -123 -108 -201t-240 -78q-173 0 -275 123.5t-102 333.5q0 205 107 328t282 123q132 0 222.5 -72t103.5 -186h-105zM1511 721 q0 133 -49 252.5t-141 212.5q-95 95 -215 144.5t-254 49.5q-133 0 -251.5 -49t-209.5 -141q-95 -97 -145.5 -218t-50.5 -251t50 -249.5t144 -213.5t213.5 -144.5t249.5 -50.5t251.5 51t217.5 146q93 92 141.5 209.5t48.5 251.5zM852 1452q149 0 282.5 -55t237.5 -160 q103 -102 157 -235t54 -281q0 -150 -53.5 -280t-157.5 -232q-107 -106 -241.5 -162.5t-278.5 -56.5q-145 0 -277 55.5t-237 161.5q-105 104 -160 236t-55 278q0 145 56 279t161 241q101 103 232 157t280 54z" />
<glyph unicode="&#xaa;" horiz-adv-x="795" d="M575 1124h-112q-143 0 -221 -44.5t-78 -125.5q0 -64 48 -103.5t128 -39.5q100 0 167.5 60.5t67.5 148.5v104zM592 754l-8 120q-42 -67 -108 -102t-152 -35q-116 0 -184 59t-68 158q0 110 98.5 174t269.5 64h135v84q0 70 -48 107.5t-138 37.5q-84 0 -133.5 -33.5 t-54.5 -94.5l-97 -1q13 96 85.5 146.5t197.5 50.5q68 0 121.5 -13.5t87.5 -39.5q43 -34 60.5 -79.5t17.5 -152.5v-313q0 -32 3 -66t9 -71h-94z" />
<glyph unicode="&#xab;" horiz-adv-x="930" d="M696 117l-211 397l211 395h111l-191 -395l191 -397h-111zM332 117l-211 397l211 395h110l-188 -395l188 -397h-110z" />
<glyph unicode="&#xac;" horiz-adv-x="1706" d="M1452 856v-502h-78v420h-1120v82h1198z" />
<glyph unicode="&#xad;" horiz-adv-x="569" d="M31 457v114h506v-114h-506z" />
<glyph unicode="&#xae;" horiz-adv-x="1706" d="M852 1077h-168v-313h168q145 0 199.5 36t54.5 126q0 78 -61.5 114.5t-192.5 36.5zM874 1155q180 0 264.5 -56.5t84.5 -176.5q0 -89 -55.5 -149t-147.5 -71l190 -393h-131l-182 377h-213v-377h-115v846h305zM1511 721q0 133 -49 252.5t-141 212.5q-95 95 -215 144.5 t-254 49.5q-133 0 -251.5 -49t-209.5 -141q-95 -97 -145.5 -218t-50.5 -251t50 -249.5t144 -213.5t213.5 -144.5t249.5 -50.5t251.5 51t217.5 146q93 92 141.5 209.5t48.5 251.5zM852 1452q149 0 282.5 -55t237.5 -160q103 -102 157 -235t54 -281q0 -150 -53.5 -280 t-157.5 -232q-107 -106 -241.5 -162.5t-278.5 -56.5q-145 0 -277 55.5t-237 161.5q-105 104 -160 236t-55 278q0 145 56 279t161 241q101 103 232 157t280 54z" />
<glyph unicode="&#xaf;" d="M256 1264v116h512v-116h-512z" />
<glyph unicode="&#xb0;" horiz-adv-x="674" d="M551 1176q0 87 -63 150t-150 63q-89 0 -151 -62t-62 -151t62.5 -151t150.5 -62t150.5 62t62.5 151zM338 1450q112 0 192 -80.5t80 -193.5q0 -114 -80 -193.5t-194 -79.5q-115 0 -194 79t-79 194q0 114 80.5 194t194.5 80z" />
<glyph unicode="&#xb1;" horiz-adv-x="1706" d="M1452 141v-82h-1198v82h1198zM893 1161v-354h559v-80h-559v-352h-80v352h-559v80h559v354h80z" />
<glyph unicode="&#xb2;" horiz-adv-x="748" d="M74 571v88q249 200 364 334t115 224q0 70 -50 113.5t-130 43.5q-87 0 -138 -46t-55 -128h-102q5 111 83.5 176.5t207.5 65.5t205.5 -59t76.5 -158q0 -102 -104 -232.5t-363 -343.5h482v-78h-592z" />
<glyph unicode="&#xb3;" horiz-adv-x="748" d="M141 797q4 -80 61.5 -124t157.5 -44q105 0 166.5 47.5t61.5 128.5q0 84 -63.5 130t-180.5 46q-13 0 -19.5 -0.5t-13.5 -1.5v68h29q113 0 174 43t61 122q0 75 -58.5 119.5t-158.5 44.5q-91 0 -145 -42.5t-64 -121.5h-88q7 104 89.5 167t211.5 63q135 0 219.5 -65.5 t84.5 -168.5q0 -74 -50.5 -123.5t-148.5 -70.5q104 -22 157.5 -76.5t53.5 -140.5q0 -106 -88.5 -173t-229.5 -67q-140 0 -224 64.5t-89 174.5z" />
<glyph unicode="&#xb4;" d="M479 1163h-92l209 348h152z" />
<glyph unicode="&#xb5;" horiz-adv-x="1094" d="M326 1063l-123 -590q-9 -43 -13 -77t-4 -64q0 -126 60 -192t174 -66q127 0 219.5 109t136.5 313l125 567h121l-166 -786q-2 -9 -5 -24q-20 -92 -20 -112q0 -31 17.5 -47t50.5 -16q9 0 18.5 0.5t20.5 1.5l-18 -96q-3 -1 -8 -2q-49 -11 -68 -11q-68 0 -100.5 31.5 t-32.5 95.5q0 7 0.5 16t3.5 29q-43 -83 -123.5 -127.5t-188.5 -44.5q-97 0 -169.5 45.5t-104.5 126.5l-119 -567h-121l316 1487h121z" />
<glyph unicode="&#xb6;" d="M932 1415h-129v-1415h-70v1415h-192v-1415h-70v782q-175 8 -278 102.5t-103 245.5q0 157 108.5 253t286.5 96h447v-64z" />
<glyph unicode="&#xb7;" horiz-adv-x="567" d="M178 713q0 45 30 75.5t75 30.5q44 0 75 -31t31 -75t-30.5 -74.5t-75.5 -30.5t-75 30t-30 75z" />
<glyph unicode="&#xb8;" d="M270 -418v76q77 -18 136 -26.5t102 -8.5q64 0 97.5 23t33.5 67q0 54 -35 79.5t-110 25.5q-19 0 -28.5 -0.5t-18.5 -1.5l-1 184h66v-111h14q109 0 166.5 -44t57.5 -128q0 -85 -58 -130.5t-168 -45.5q-54 0 -116 10t-138 31z" />
<glyph unicode="&#xb9;" horiz-adv-x="748" d="M377 571v766q-67 -50 -116.5 -80t-88.5 -45v78q47 21 98 54.5t111 82.5h82v-856h-86z" />
<glyph unicode="&#xba;" horiz-adv-x="885" d="M188 1114q0 -139 68.5 -219t185.5 -80t185.5 80.5t68.5 218.5t-68 217.5t-186 79.5q-117 0 -185.5 -79.5t-68.5 -217.5zM90 1114q0 168 98.5 272.5t253.5 104.5q157 0 256 -104.5t99 -272.5t-98.5 -272.5t-256.5 -104.5q-156 0 -254 104t-98 273z" />
<glyph unicode="&#xbb;" horiz-adv-x="930" d="M231 117h-110l188 397l-188 395h110l211 -395zM596 117h-111l189 397l-189 395h111l209 -395z" />
<glyph unicode="&#xbc;" horiz-adv-x="1769" d="M1513 246v485l-354 -485h354zM1513 0v184h-423v80l393 535h116v-553h138v-62h-138v-184h-86zM1290 1450h107l-916 -1475h-108zM360 627v714q-58 -43 -107 -72t-89 -44v73q49 21 98 52.5t100 74.5h80v-798h-82z" />
<glyph unicode="&#xbd;" horiz-adv-x="1769" d="M1126 0v82q240 188 349.5 312.5t109.5 207.5q0 66 -48 107t-126 41q-81 0 -130 -43.5t-52 -118.5h-96q3 103 77.5 164t198.5 61q123 0 196.5 -55.5t73.5 -147.5q0 -95 -98.5 -215.5t-347.5 -322.5h459v-72h-566zM1290 1450h107l-916 -1475h-108zM360 627v714 q-58 -43 -107 -72t-89 -44v73q49 21 98 52.5t100 74.5h80v-798h-82z" />
<glyph unicode="&#xbe;" horiz-adv-x="1769" d="M1511 246v485l-354 -485h354zM1511 0v184h-424v80l394 535h116v-553h138v-62h-138v-184h-86zM1288 1450h107l-916 -1475h-108zM135 835q3 -72 58 -113.5t151 -41.5q99 0 158 45t59 119q0 78 -60.5 121t-170.5 43h-33v63q5 0 14.5 -1t14.5 -1q106 0 164.5 41t58.5 115 q0 70 -56 111.5t-151 41.5q-88 0 -139.5 -40t-59.5 -113h-84q7 96 85.5 154.5t201.5 58.5q129 0 209 -60.5t80 -156.5q0 -70 -49 -116t-142 -65q101 -19 152 -70.5t51 -131.5q0 -99 -84 -162.5t-219 -63.5q-134 0 -214 60t-85 163h90z" />
<glyph unicode="&#xbf;" horiz-adv-x="995" d="M674 1475v-170h-160v170h160zM653 1118v-160q0 -127 -154 -275l-7 -7q-117 -111 -161 -187t-44 -155q0 -119 85 -190.5t228 -71.5q48 0 98.5 7.5t104.5 22.5v-108q-60 -10 -114.5 -15.5t-104.5 -5.5q-205 0 -317.5 95t-112.5 266q0 176 216 388l13 13q14 14 40 39 q114 110 114 182v162h116z" />
<glyph unicode="&#xc0;" horiz-adv-x="1348" d="M348 514h641l-321 842zM16 0l574 1475h162l579 -1475h-145l-156 403h-721l-155 -403h-138zM707 1609l-269 348h152l209 -348h-92z" />
<glyph unicode="&#xc1;" horiz-adv-x="1348" d="M348 514h641l-321 842zM16 0l574 1475h162l579 -1475h-145l-156 403h-721l-155 -403h-138zM641 1609h-92l209 348h152z" />
<glyph unicode="&#xc2;" horiz-adv-x="1348" d="M348 514h641l-321 842zM16 0l574 1475h162l579 -1475h-145l-156 403h-721l-155 -403h-138zM398 1609l200 348h152l200 -348h-92l-184 262l-184 -262h-92z" />
<glyph unicode="&#xc3;" horiz-adv-x="1348" d="M348 514h641l-321 842zM16 0l574 1475h162l579 -1475h-145l-156 403h-721l-155 -403h-138zM963 1873q-26 -89 -74.5 -135.5t-116.5 -46.5q-13 0 -29.5 2.5t-36.5 8.5l-95 30q-13 4 -26 6t-28 2q-29 0 -52.5 -18.5t-39.5 -54.5h-80q22 88 72 135t123 47q16 0 29 -2t24 -6 l96 -31q14 -5 28 -7.5t28 -2.5q33 0 56.5 18t39.5 55h82z" />
<glyph unicode="&#xc4;" horiz-adv-x="1348" d="M348 514h641l-321 842zM16 0l574 1475h162l579 -1475h-145l-156 403h-721l-155 -403h-138zM764 1687v162h141v-162h-141zM443 1687v162h141v-162h-141z" />
<glyph unicode="&#xc5;" horiz-adv-x="1348" d="M541 1751q0 -52 40.5 -92.5t92.5 -40.5q54 0 93.5 39.5t39.5 93.5q0 55 -39 94t-94 39q-54 0 -93.5 -39.5t-39.5 -93.5zM449 1749q0 94 64.5 158.5t158.5 64.5q92 0 157.5 -65.5t65.5 -157.5q0 -94 -65 -158.5t-158 -64.5q-94 0 -158.5 64.5t-64.5 158.5zM348 514h641 l-321 842zM16 0l574 1460h162l579 -1460h-145l-156 403h-721l-155 -403h-138z" />
<glyph unicode="&#xc6;" horiz-adv-x="2030" d="M449 522h622l-137 846zM12 0l838 1475h1003v-115h-782l86 -537h664v-112h-645l98 -594h602v-117h-719l-67 408h-707l-229 -408h-142z" />
<glyph unicode="&#xc7;" horiz-adv-x="1352" d="M1274 350q-36 -181 -171 -278t-351 -97q-289 0 -450 200t-161 560q0 361 167.5 561.5t467.5 200.5q208 0 335.5 -97t148.5 -270h-142q-15 120 -108 188t-242 68q-224 0 -352.5 -175.5t-128.5 -483.5q0 -292 131 -463.5t354 -171.5q145 0 240.5 69.5t115.5 188.5h146z M481 -418v76q77 -18 136 -26.5t102 -8.5q64 0 97.5 23t33.5 67q0 54 -35 79.5t-110 25.5q-19 0 -28.5 -0.5t-18.5 -1.5l-1 184h66v-111h14q109 0 166.5 -44t57.5 -128q0 -85 -58 -130.5t-168 -45.5q-54 0 -116 10t-138 31z" />
<glyph unicode="&#xc8;" horiz-adv-x="1239" d="M201 0v1475h870v-117h-737v-539h708v-110h-708v-588h766v-121h-899zM670 1609l-269 348h152l209 -348h-92z" />
<glyph unicode="&#xc9;" horiz-adv-x="1239" d="M201 0v1475h870v-117h-737v-539h708v-110h-708v-588h766v-121h-899zM604 1609h-92l209 348h152z" />
<glyph unicode="&#xca;" horiz-adv-x="1239" d="M201 0v1475h870v-117h-737v-539h708v-110h-708v-588h766v-121h-899zM361 1609l200 348h152l200 -348h-92l-184 262l-184 -262h-92z" />
<glyph unicode="&#xcb;" horiz-adv-x="1239" d="M201 0v1475h870v-117h-737v-539h708v-110h-708v-588h766v-121h-899zM727 1687v162h141v-162h-141zM406 1687v162h141v-162h-141z" />
<glyph unicode="&#xcc;" horiz-adv-x="537" d="M201 0v1475h133v-1475h-133zM301 1609l-269 348h152l209 -348h-92z" />
<glyph unicode="&#xcd;" horiz-adv-x="537" d="M201 0v1475h133v-1475h-133zM235 1609h-92l209 348h152z" />
<glyph unicode="&#xce;" horiz-adv-x="537" d="M201 0v1475h133v-1475h-133zM-8 1609l200 348h152l200 -348h-92l-184 262l-184 -262h-92z" />
<glyph unicode="&#xcf;" horiz-adv-x="537" d="M201 0v1475h133v-1475h-133zM358 1687v162h141v-162h-141zM37 1687v162h141v-162h-141z" />
<glyph unicode="&#xd0;" horiz-adv-x="1485" d="M342 709v-584h254q316 0 468.5 150t152.5 462q0 317 -151.5 468t-469.5 151h-254v-543h373v-104h-373zM211 709h-211v104h211v662h397q370 0 560 -187.5t190 -550.5t-190 -550t-560 -187h-397v709z" />
<glyph unicode="&#xd1;" horiz-adv-x="1487" d="M201 0v1475h147l813 -1291v1291h125v-1475h-162l-798 1270v-1270h-125zM1032 1873q-26 -89 -74.5 -135.5t-116.5 -46.5q-13 0 -29.5 2.5t-36.5 8.5l-95 30q-13 4 -26 6t-28 2q-29 0 -52.5 -18.5t-39.5 -54.5h-80q22 88 72 135t123 47q16 0 29 -2t24 -6l96 -31 q14 -5 28 -7.5t28 -2.5q33 0 56.5 18t39.5 55h82z" />
<glyph unicode="&#xd2;" horiz-adv-x="1579" d="M279 737q0 -296 138 -470.5t371 -174.5q234 0 373 175t139 470t-138.5 469t-373.5 174q-233 0 -371 -173.5t-138 -469.5zM137 737q0 349 177 554.5t474 205.5q298 0 476 -206.5t178 -553.5t-178 -554.5t-476 -207.5q-297 0 -474 207t-177 555zM824 1609l-269 348h152 l209 -348h-92z" />
<glyph unicode="&#xd3;" horiz-adv-x="1579" d="M279 737q0 -296 138 -470.5t371 -174.5q234 0 373 175t139 470t-138.5 469t-373.5 174q-233 0 -371 -173.5t-138 -469.5zM137 737q0 349 177 554.5t474 205.5q298 0 476 -206.5t178 -553.5t-178 -554.5t-476 -207.5q-297 0 -474 207t-177 555zM758 1609h-92l209 348h152z " />
<glyph unicode="&#xd4;" horiz-adv-x="1579" d="M279 737q0 -296 138 -470.5t371 -174.5q234 0 373 175t139 470t-138.5 469t-373.5 174q-233 0 -371 -173.5t-138 -469.5zM137 737q0 349 177 554.5t474 205.5q298 0 476 -206.5t178 -553.5t-178 -554.5t-476 -207.5q-297 0 -474 207t-177 555zM515 1609l200 348h152 l200 -348h-92l-184 262l-184 -262h-92z" />
<glyph unicode="&#xd5;" horiz-adv-x="1579" d="M279 737q0 -296 138 -470.5t371 -174.5q234 0 373 175t139 470t-138.5 469t-373.5 174q-233 0 -371 -173.5t-138 -469.5zM137 737q0 349 177 554.5t474 205.5q298 0 476 -206.5t178 -553.5t-178 -554.5t-476 -207.5q-297 0 -474 207t-177 555zM1080 1873 q-26 -89 -74.5 -135.5t-116.5 -46.5q-13 0 -29.5 2.5t-36.5 8.5l-95 30q-13 4 -26 6t-28 2q-29 0 -52.5 -18.5t-39.5 -54.5h-80q22 88 72 135t123 47q16 0 29 -2t24 -6l96 -31q14 -5 28 -7.5t28 -2.5q33 0 56.5 18t39.5 55h82z" />
<glyph unicode="&#xd6;" horiz-adv-x="1579" d="M279 737q0 -296 138 -470.5t371 -174.5q234 0 373 175t139 470t-138.5 469t-373.5 174q-233 0 -371 -173.5t-138 -469.5zM137 737q0 349 177 554.5t474 205.5q298 0 476 -206.5t178 -553.5t-178 -554.5t-476 -207.5q-297 0 -474 207t-177 555zM881 1687v162h141v-162 h-141zM560 1687v162h141v-162h-141z" />
<glyph unicode="&#xd7;" horiz-adv-x="1706" d="M854 668l487 487l58 -57l-488 -488l488 -487l-58 -57l-487 487l-487 -487l-58 57l488 487l-488 488l58 57z" />
<glyph unicode="&#xd8;" horiz-adv-x="1579" d="M279 229q-72 105 -107 228.5t-35 271.5q0 353 177.5 560.5t478.5 207.5q131 0 241.5 -43.5t198.5 -130.5l180 209l60 -57l-187 -213q79 -109 117.5 -235.5t38.5 -281.5q0 -355 -177.5 -562.5t-480.5 -207.5q-133 0 -244.5 47t-209.5 144l-191 -219l-59 57zM373 336 l774 889q-73 80 -162 118.5t-201 38.5q-230 0 -367.5 -177t-137.5 -474q0 -116 23 -214.5t71 -180.5zM1194 1157l-776 -893q70 -87 160 -129.5t204 -42.5q239 0 378.5 174.5t139.5 472.5q0 122 -26 225.5t-80 192.5z" />
<glyph unicode="&#xd9;" horiz-adv-x="1460" d="M199 586v889h131v-861q0 -273 97.5 -398.5t307.5 -125.5q205 0 307.5 130t102.5 390v865h117v-865q0 -188 -23.5 -279t-77.5 -163q-71 -95 -181 -144t-251 -49q-264 0 -397 153.5t-133 457.5zM764 1609l-269 348h152l209 -348h-92z" />
<glyph unicode="&#xda;" horiz-adv-x="1460" d="M199 586v889h131v-861q0 -273 97.5 -398.5t307.5 -125.5q205 0 307.5 130t102.5 390v865h117v-865q0 -188 -23.5 -279t-77.5 -163q-71 -95 -181 -144t-251 -49q-264 0 -397 153.5t-133 457.5zM698 1609h-92l209 348h152z" />
<glyph unicode="&#xdb;" horiz-adv-x="1460" d="M199 586v889h131v-861q0 -273 97.5 -398.5t307.5 -125.5q205 0 307.5 130t102.5 390v865h117v-865q0 -188 -23.5 -279t-77.5 -163q-71 -95 -181 -144t-251 -49q-264 0 -397 153.5t-133 457.5zM455 1609l200 348h152l200 -348h-92l-184 262l-184 -262h-92z" />
<glyph unicode="&#xdc;" horiz-adv-x="1460" d="M199 586v889h131v-861q0 -273 97.5 -398.5t307.5 -125.5q205 0 307.5 130t102.5 390v865h117v-865q0 -188 -23.5 -279t-77.5 -163q-71 -95 -181 -144t-251 -49q-264 0 -397 153.5t-133 457.5zM821 1687v162h141v-162h-141zM500 1687v162h141v-162h-141z" />
<glyph unicode="&#xdd;" horiz-adv-x="1239" d="M561 0v633l-538 842h161l449 -711l442 711h142l-523 -832v-643h-133zM588 1609h-92l209 348h152z" />
<glyph unicode="&#xde;" horiz-adv-x="1241" d="M336 467h307q196 0 291.5 73.5t95.5 223.5q0 155 -93 224t-304 69h-297v-590zM203 0v1475h133v-299h219q189 0 282.5 -18t157.5 -60q86 -55 132.5 -140.5t46.5 -187.5q0 -212 -146 -317t-440 -105h-252v-348h-133z" />
<glyph unicode="&#xdf;" horiz-adv-x="1255" d="M178 0v993q0 146 20.5 227.5t67.5 139.5q57 68 136 102.5t182 34.5q162 0 262 -82.5t100 -214.5q0 -61 -25.5 -109t-99.5 -114q-5 -5 -18 -16q-96 -86 -96 -144q0 -77 204 -193q39 -22 60 -34q101 -59 145.5 -127t44.5 -162q0 -142 -98.5 -234t-247.5 -92q-156 0 -243 80 t-91 225l123 1v-9q0 -87 56 -139.5t149 -52.5q98 0 161.5 59t63.5 150q0 69 -36 118.5t-140 110.5l-24 15q-252 149 -252 274q0 50 28 97t107 120q6 6 19 18q93 85 93 158q0 89 -68 146t-177 57q-73 0 -129.5 -29t-94.5 -86q-29 -44 -42 -97t-13 -151v-55v-985h-127z" />
<glyph unicode="&#xe0;" horiz-adv-x="1059" d="M766 528h-150q-191 0 -294 -63t-103 -178q0 -93 63.5 -149t170.5 -56q135 0 224 85.5t89 213.5v147zM788 0l-10 172q-55 -95 -143.5 -145t-202.5 -50q-155 0 -245.5 83.5t-90.5 226.5q0 157 131 247.5t361 90.5h178v120q0 102 -64 155.5t-184 53.5q-112 0 -177.5 -48.5 t-72.5 -135.5h-129q16 136 113 208.5t264 72.5q91 0 162 -20t117 -58q56 -46 79 -110t23 -220v-448q0 -42 4 -90.5t12 -104.5h-125zM563 1163l-269 348h152l209 -348h-92z" />
<glyph unicode="&#xe1;" horiz-adv-x="1059" d="M766 528h-150q-191 0 -294 -63t-103 -178q0 -93 63.5 -149t170.5 -56q135 0 224 85.5t89 213.5v147zM788 0l-10 172q-55 -95 -143.5 -145t-202.5 -50q-155 0 -245.5 83.5t-90.5 226.5q0 157 131 247.5t361 90.5h178v120q0 102 -64 155.5t-184 53.5q-112 0 -177.5 -48.5 t-72.5 -135.5h-129q16 136 113 208.5t264 72.5q91 0 162 -20t117 -58q56 -46 79 -110t23 -220v-448q0 -42 4 -90.5t12 -104.5h-125zM497 1163h-92l209 348h152z" />
<glyph unicode="&#xe2;" horiz-adv-x="1059" d="M766 528h-150q-191 0 -294 -63t-103 -178q0 -93 63.5 -149t170.5 -56q135 0 224 85.5t89 213.5v147zM788 0l-10 172q-55 -95 -143.5 -145t-202.5 -50q-155 0 -245.5 83.5t-90.5 226.5q0 157 131 247.5t361 90.5h178v120q0 102 -64 155.5t-184 53.5q-112 0 -177.5 -48.5 t-72.5 -135.5h-129q16 136 113 208.5t264 72.5q91 0 162 -20t117 -58q56 -46 79 -110t23 -220v-448q0 -42 4 -90.5t12 -104.5h-125zM254 1163l200 348h152l200 -348h-92l-184 262l-184 -262h-92z" />
<glyph unicode="&#xe3;" horiz-adv-x="1059" d="M766 528h-150q-191 0 -294 -63t-103 -178q0 -93 63.5 -149t170.5 -56q135 0 224 85.5t89 213.5v147zM788 0l-10 172q-55 -95 -143.5 -145t-202.5 -50q-155 0 -245.5 83.5t-90.5 226.5q0 157 131 247.5t361 90.5h178v120q0 102 -64 155.5t-184 53.5q-112 0 -177.5 -48.5 t-72.5 -135.5h-129q16 136 113 208.5t264 72.5q91 0 162 -20t117 -58q56 -46 79 -110t23 -220v-448q0 -42 4 -90.5t12 -104.5h-125zM819 1427q-26 -89 -74.5 -135.5t-116.5 -46.5q-13 0 -29.5 2.5t-36.5 8.5l-95 30q-13 4 -26 6t-28 2q-29 0 -52.5 -18.5t-39.5 -54.5h-80 q22 88 72 135t123 47q16 0 29 -2t24 -6l96 -31q14 -5 28 -7.5t28 -2.5q33 0 56.5 18t39.5 55h82z" />
<glyph unicode="&#xe4;" horiz-adv-x="1059" d="M766 528h-150q-191 0 -294 -63t-103 -178q0 -93 63.5 -149t170.5 -56q135 0 224 85.5t89 213.5v147zM788 0l-10 172q-55 -95 -143.5 -145t-202.5 -50q-155 0 -245.5 83.5t-90.5 226.5q0 157 131 247.5t361 90.5h178v120q0 102 -64 155.5t-184 53.5q-112 0 -177.5 -48.5 t-72.5 -135.5h-129q16 136 113 208.5t264 72.5q91 0 162 -20t117 -58q56 -46 79 -110t23 -220v-448q0 -42 4 -90.5t12 -104.5h-125zM620 1241v162h141v-162h-141zM299 1241v162h141v-162h-141z" />
<glyph unicode="&#xe5;" horiz-adv-x="1059" d="M309 1341q0 94 64.5 158t158.5 64q93 0 158.5 -65t65.5 -157q0 -93 -65 -158t-159 -65q-93 0 -158 65t-65 158zM397 1341q0 -51 42.5 -93t95.5 -42t93 40.5t40 94.5q0 56 -39 95t-94 39q-53 0 -93 -39.5t-45 -94.5zM788 0l-10 172q-55 -95 -143.5 -145t-202.5 -50 q-155 0 -245.5 83.5t-90.5 226.5q0 157 131 247.5t361 90.5h178v120q0 102 -64 155.5t-184 53.5q-112 0 -177.5 -48.5t-72.5 -135.5h-129q16 136 113 208.5t264 72.5q91 0 162 -20t117 -58q56 -46 79 -110t23 -220v-448q0 -42 4 -90.5t12 -104.5h-125zM766 528h-150 q-190 0 -293.5 -63t-103.5 -178q0 -93 63.5 -149t170.5 -56q135 0 224 85.5t89 213.5v147z" />
<glyph unicode="&#xe6;" horiz-adv-x="1759" d="M891 598h628q-9 167 -92.5 261.5t-220.5 94.5q-132 0 -213.5 -92t-101.5 -264zM768 501l-154 -1q-204 0 -301.5 -55.5t-97.5 -172.5q0 -89 67.5 -140.5t184.5 -51.5q155 0 229 85.5t74 264.5q0 29 -0.5 44t-1.5 27zM862 864q65 96 151 142.5t199 46.5q199 0 319 -140.5 t120 -375.5v-37h-764q0 -201 88 -310.5t248 -109.5q112 0 193 67.5t100 178.5h122q-24 -168 -138.5 -259.5t-301.5 -91.5q-127 0 -220 56t-149 166q-51 -118 -139.5 -170t-238.5 -52q-172 0 -268.5 77.5t-96.5 213.5q0 159 130 245.5t370 86.5h182q1 13 1.5 29t0.5 45 q0 149 -59.5 215.5t-192.5 66.5q-112 0 -177.5 -48.5t-72.5 -135.5h-129q17 138 114 210.5t265 72.5q138 0 224 -47.5t120 -141.5z" />
<glyph unicode="&#xe7;" horiz-adv-x="1067" d="M965 313q-13 -161 -115 -249.5t-277 -88.5q-212 0 -333 140t-121 387q0 266 117.5 408.5t336.5 142.5q176 0 279.5 -92t110.5 -252h-140q-7 112 -77 178.5t-179 66.5q-152 0 -232.5 -114.5t-80.5 -331.5q0 -209 79 -315.5t234 -106.5q109 0 177 58.5t87 168.5h134z M307 -418v76q77 -18 136 -26.5t102 -8.5q64 0 97.5 23t33.5 67q0 54 -35 79.5t-110 25.5q-19 0 -28.5 -0.5t-18.5 -1.5l-1 184h66v-111h14q109 0 166.5 -44t57.5 -128q0 -85 -58 -130.5t-168 -45.5q-54 0 -116 10t-138 31z" />
<glyph unicode="&#xe8;" horiz-adv-x="1130" d="M264 598h647q-9 166 -95 260t-228 94q-137 0 -220 -90.5t-104 -263.5zM1034 326q-23 -165 -140.5 -258t-303.5 -93q-215 0 -343 144t-128 387q0 247 131 397t346 150q206 0 329.5 -140.5t123.5 -375.5v-37h-789q0 -200 91 -310t255 -110q115 0 198.5 67.5t102.5 178.5 h127zM627 1163l-269 348h152l209 -348h-92z" />
<glyph unicode="&#xe9;" horiz-adv-x="1130" d="M264 598h647q-9 166 -95 260t-228 94q-137 0 -220 -90.5t-104 -263.5zM1034 326q-23 -165 -140.5 -258t-303.5 -93q-215 0 -343 144t-128 387q0 247 131 397t346 150q206 0 329.5 -140.5t123.5 -375.5v-37h-789q0 -200 91 -310t255 -110q115 0 198.5 67.5t102.5 178.5 h127zM561 1163h-92l209 348h152z" />
<glyph unicode="&#xea;" horiz-adv-x="1130" d="M264 598h647q-9 166 -95 260t-228 94q-137 0 -220 -90.5t-104 -263.5zM1034 326q-23 -165 -140.5 -258t-303.5 -93q-215 0 -343 144t-128 387q0 247 131 397t346 150q206 0 329.5 -140.5t123.5 -375.5v-37h-789q0 -200 91 -310t255 -110q115 0 198.5 67.5t102.5 178.5 h127zM318 1163l200 348h152l200 -348h-92l-184 262l-184 -262h-92z" />
<glyph unicode="&#xeb;" horiz-adv-x="1130" d="M264 598h647q-9 166 -95 260t-228 94q-137 0 -220 -90.5t-104 -263.5zM1034 326q-23 -165 -140.5 -258t-303.5 -93q-215 0 -343 144t-128 387q0 247 131 397t346 150q206 0 329.5 -140.5t123.5 -375.5v-37h-789q0 -200 91 -310t255 -110q115 0 198.5 67.5t102.5 178.5 h127zM684 1241v162h141v-162h-141zM363 1241v162h141v-162h-141z" />
<glyph unicode="&#xec;" horiz-adv-x="477" d="M174 0v1028h127v-1028h-127zM273 1163l-269 348h152l209 -348h-92z" />
<glyph unicode="&#xed;" horiz-adv-x="477" d="M174 0v1028h127v-1028h-127zM207 1163h-92l209 348h152z" />
<glyph unicode="&#xee;" horiz-adv-x="477" d="M174 0v1028h127v-1028h-127zM-36 1163l200 348h152l200 -348h-92l-184 262l-184 -262h-92z" />
<glyph unicode="&#xef;" horiz-adv-x="477" d="M174 0v1028h127v-1028h-127zM330 1241v162h141v-162h-141zM9 1241v162h141v-162h-141z" />
<glyph unicode="&#xf0;" horiz-adv-x="1180" d="M252 467q0 -175 90.5 -277t247.5 -102q156 0 247 102t91 277t-91.5 277t-246.5 102t-246.5 -102t-91.5 -277zM864 844q-49 96 -109 178t-132 152l-314 -132l-37 82l277 115q-63 50 -127 92t-129 76l61 72q77 -37 156.5 -85.5t161.5 -107.5l248 100l34 -79l-211 -88 q159 -153 238.5 -335.5t79.5 -394.5q0 -235 -128 -374.5t-343 -139.5q-209 0 -340 134.5t-131 349.5t131 348t340 133q81 0 147.5 -23.5t126.5 -72.5z" />
<glyph unicode="&#xf1;" horiz-adv-x="1155" d="M182 0v793q0 50 -1.5 103t-6.5 132h125l6 -174q74 93 158 139.5t176 46.5q179 0 263.5 -98.5t84.5 -308.5v-633h-127v618q0 166 -55.5 238t-181.5 72q-138 0 -227 -90t-89 -234v-604h-125zM873 1427q-26 -89 -74.5 -135.5t-116.5 -46.5q-13 0 -29.5 2.5t-36.5 8.5l-95 30 q-13 4 -26 6t-28 2q-29 0 -52.5 -18.5t-39.5 -54.5h-80q22 88 72 135t123 47q16 0 29 -2t24 -6l96 -31q14 -5 28 -7.5t28 -2.5q33 0 56.5 18t39.5 55h82z" />
<glyph unicode="&#xf2;" horiz-adv-x="1180" d="M252 514q0 -198 90.5 -312t247.5 -114q155 0 246.5 114.5t91.5 311.5q0 198 -91 312t-247 114q-157 0 -247.5 -114t-90.5 -312zM119 514q0 240 131.5 389.5t339.5 149.5t339.5 -149.5t131.5 -389.5t-131.5 -389.5t-339.5 -149.5t-339.5 149.5t-131.5 389.5zM623 1163 l-269 348h152l209 -348h-92z" />
<glyph unicode="&#xf3;" horiz-adv-x="1180" d="M252 514q0 -198 90.5 -312t247.5 -114q155 0 246.5 114.5t91.5 311.5q0 198 -91 312t-247 114q-157 0 -247.5 -114t-90.5 -312zM119 514q0 240 131.5 389.5t339.5 149.5t339.5 -149.5t131.5 -389.5t-131.5 -389.5t-339.5 -149.5t-339.5 149.5t-131.5 389.5zM557 1163h-92 l209 348h152z" />
<glyph unicode="&#xf4;" horiz-adv-x="1180" d="M252 514q0 -198 90.5 -312t247.5 -114q155 0 246.5 114.5t91.5 311.5q0 198 -91 312t-247 114q-157 0 -247.5 -114t-90.5 -312zM119 514q0 240 131.5 389.5t339.5 149.5t339.5 -149.5t131.5 -389.5t-131.5 -389.5t-339.5 -149.5t-339.5 149.5t-131.5 389.5zM314 1163 l200 348h152l200 -348h-92l-184 262l-184 -262h-92z" />
<glyph unicode="&#xf5;" horiz-adv-x="1180" d="M252 514q0 -198 90.5 -312t247.5 -114q155 0 246.5 114.5t91.5 311.5q0 198 -91 312t-247 114q-157 0 -247.5 -114t-90.5 -312zM119 514q0 240 131.5 389.5t339.5 149.5t339.5 -149.5t131.5 -389.5t-131.5 -389.5t-339.5 -149.5t-339.5 149.5t-131.5 389.5zM879 1427 q-26 -89 -74.5 -135.5t-116.5 -46.5q-13 0 -29.5 2.5t-36.5 8.5l-95 30q-13 4 -26 6t-28 2q-29 0 -52.5 -18.5t-39.5 -54.5h-80q22 88 72 135t123 47q16 0 29 -2t24 -6l96 -31q14 -5 28 -7.5t28 -2.5q33 0 56.5 18t39.5 55h82z" />
<glyph unicode="&#xf6;" horiz-adv-x="1180" d="M252 514q0 -198 90.5 -312t247.5 -114q155 0 246.5 114.5t91.5 311.5q0 198 -91 312t-247 114q-157 0 -247.5 -114t-90.5 -312zM119 514q0 240 131.5 389.5t339.5 149.5t339.5 -149.5t131.5 -389.5t-131.5 -389.5t-339.5 -149.5t-339.5 149.5t-131.5 389.5zM680 1241v162 h141v-162h-141zM359 1241v162h141v-162h-141z" />
<glyph unicode="&#xf7;" horiz-adv-x="1706" d="M854 365q41 0 69.5 -29.5t28.5 -71.5q0 -40 -28.5 -69t-69.5 -29t-69.5 28.5t-28.5 69.5t29 71t69 30zM1452 651v-82h-1198v82h1198zM854 1055q41 0 69.5 -28.5t28.5 -70.5q0 -40 -28.5 -70t-69.5 -30t-69.5 29.5t-28.5 70.5t28.5 70t69.5 29z" />
<glyph unicode="&#xf8;" horiz-adv-x="1180" d="M225 154q-54 72 -80 162.5t-26 207.5q0 233 132 380t339 147q90 0 169 -31t146 -92l121 139l49 -47l-125 -143q56 -76 83.5 -165t27.5 -196q0 -241 -131 -390t-342 -149q-88 0 -165.5 30.5t-152.5 94.5l-125 -141l-49 47zM311 252l516 586q-44 51 -104 76.5t-133 25.5 q-157 0 -247.5 -114t-90.5 -312q0 -76 14.5 -140.5t44.5 -121.5zM866 782l-516 -589q51 -53 110 -79t128 -26q156 0 248 115t92 311q0 80 -15.5 146t-46.5 122z" />
<glyph unicode="&#xf9;" horiz-adv-x="1155" d="M973 1028v-792q0 -51 1.5 -104t5.5 -132h-122l-6 162q-76 -95 -158 -140t-178 -45q-178 0 -262 99t-84 307v645h125v-629q0 -161 57 -235t180 -74q140 0 228 89t88 233v616h125zM611 1163l-269 348h152l209 -348h-92z" />
<glyph unicode="&#xfa;" horiz-adv-x="1155" d="M973 1028v-792q0 -51 1.5 -104t5.5 -132h-122l-6 162q-76 -95 -158 -140t-178 -45q-178 0 -262 99t-84 307v645h125v-629q0 -161 57 -235t180 -74q140 0 228 89t88 233v616h125zM545 1163h-92l209 348h152z" />
<glyph unicode="&#xfb;" horiz-adv-x="1155" d="M973 1028v-792q0 -51 1.5 -104t5.5 -132h-122l-6 162q-76 -95 -158 -140t-178 -45q-178 0 -262 99t-84 307v645h125v-629q0 -161 57 -235t180 -74q140 0 228 89t88 233v616h125zM302 1163l200 348h152l200 -348h-92l-184 262l-184 -262h-92z" />
<glyph unicode="&#xfc;" horiz-adv-x="1155" d="M973 1028v-792q0 -51 1.5 -104t5.5 -132h-122l-6 162q-76 -95 -158 -140t-178 -45q-178 0 -262 99t-84 307v645h125v-629q0 -161 57 -235t180 -74q140 0 228 89t88 233v616h125zM668 1241v162h141v-162h-141zM347 1241v162h141v-162h-141z" />
<glyph unicode="&#xfd;" horiz-adv-x="1014" d="M451 4l-426 1024h153l340 -852l340 852h133l-422 -1040l-143 -377h-131zM475 1163h-92l209 348h152z" />
<glyph unicode="&#xfe;" horiz-adv-x="1192" d="M307 512q0 -199 87.5 -312.5t238.5 -113.5q150 0 230.5 112.5t80.5 321.5q0 200 -83 314t-228 114q-154 0 -240 -115t-86 -321zM178 -389v1864h127v-617q57 97 141 145t199 48q196 0 313 -145t117 -388q0 -250 -113.5 -395.5t-306.5 -145.5q-117 0 -201 46.5t-149 146.5 v-559h-127z" />
<glyph unicode="&#xff;" horiz-adv-x="1014" d="M451 4l-426 1024h153l340 -852l340 852h133l-422 -1040l-143 -377h-131zM598 1241v162h141v-162h-141zM277 1241v162h141v-162h-141z" />
<glyph unicode="&#x106;" horiz-adv-x="1352" d="M1274 350q-36 -181 -171 -278t-351 -97q-289 0 -450 200t-161 560q0 361 167.5 561.5t467.5 200.5q208 0 335.5 -97t148.5 -270h-142q-15 120 -108 188t-242 68q-224 0 -352.5 -175.5t-128.5 -483.5q0 -292 131 -463.5t354 -171.5q145 0 240.5 69.5t115.5 188.5h146z M725 1609h-92l209 348h152z" />
<glyph unicode="&#x107;" horiz-adv-x="1067" d="M965 313q-13 -161 -115 -249.5t-277 -88.5q-212 0 -333 140t-121 387q0 266 117.5 408.5t336.5 142.5q176 0 279.5 -92t110.5 -252h-140q-7 112 -77 178.5t-179 66.5q-152 0 -232.5 -114.5t-80.5 -331.5q0 -209 79 -315.5t234 -106.5q109 0 177 58.5t87 168.5h134z M522 1163h-92l209 348h152z" />
<glyph unicode="&#x10c;" horiz-adv-x="1352" d="M1274 350q-36 -181 -171 -278t-351 -97q-289 0 -450 200t-161 560q0 361 167.5 561.5t467.5 200.5q208 0 335.5 -97t148.5 -270h-142q-15 120 -108 188t-242 68q-224 0 -352.5 -175.5t-128.5 -483.5q0 -292 131 -463.5t354 -171.5q145 0 240.5 69.5t115.5 188.5h146z M482 1957h92l184 -262l184 262h92l-200 -348h-152z" />
<glyph unicode="&#x10d;" horiz-adv-x="1067" d="M965 313q-13 -161 -115 -249.5t-277 -88.5q-212 0 -333 140t-121 387q0 266 117.5 408.5t336.5 142.5q176 0 279.5 -92t110.5 -252h-140q-7 112 -77 178.5t-179 66.5q-152 0 -232.5 -114.5t-80.5 -331.5q0 -209 79 -315.5t234 -106.5q109 0 177 58.5t87 168.5h134z M279 1511h92l184 -262l184 262h92l-200 -348h-152z" />
<glyph unicode="&#x111;" horiz-adv-x="1200" d="M1012 1475v-197h211v-82h-211v-942q0 -6 4.5 -89.5t7.5 -164.5h-129l-6 170q-68 -102 -148.5 -147.5t-193.5 -45.5q-195 0 -312.5 145.5t-117.5 387.5q0 253 114 397t314 144q111 0 194.5 -46.5t147.5 -144.5v336h-330v82h330v197h125zM885 516q0 198 -88 313t-238 115 t-230.5 -112.5t-80.5 -321.5q0 -201 84.5 -315.5t232.5 -114.5q150 0 235 115.5t85 320.5z" />
<glyph unicode="&#x11e;" horiz-adv-x="1466" d="M1288 55q-143 -41 -258.5 -60.5t-218.5 -19.5q-324 0 -499 198t-175 564q0 352 174.5 556t474.5 204q208 0 338 -100.5t158 -282.5h-145q-20 128 -117.5 202.5t-245.5 74.5q-226 0 -359.5 -177t-133.5 -479q0 -307 141.5 -476t398.5 -169q72 0 156.5 15t183.5 45v475 h-368v118h495v-688zM459 1914h79q6 -75 53 -110t142 -35t140.5 34.5t52.5 110.5h81q-9 -136 -74.5 -199t-199.5 -63q-132 0 -198.5 63.5t-75.5 198.5z" />
<glyph unicode="&#x11f;" horiz-adv-x="1192" d="M248 535q0 -204 80.5 -313t230.5 -109q151 0 238.5 111t87.5 302q0 200 -86.5 312t-239.5 112q-145 0 -228 -110.5t-83 -304.5zM1012 86q0 -255 -109 -373.5t-342 -118.5q-195 0 -299 74.5t-110 218.5h139q5 -91 74 -137.5t198 -46.5q159 0 241.5 86.5t82.5 253.5v154 q-64 -97 -149.5 -143t-200.5 -46q-195 0 -307.5 141t-112.5 386q0 235 117 375.5t313 140.5q112 0 194 -45t148 -142l6 164h129q-6 -97 -9 -163.5t-3 -98.5v-680zM322 1468h79q6 -75 53 -110t142 -35t140.5 34.5t52.5 110.5h81q-9 -136 -74.5 -199t-199.5 -63 q-132 0 -198.5 63.5t-75.5 198.5z" />
<glyph unicode="&#x130;" horiz-adv-x="537" d="M201 0v1475h133v-1475h-133zM192 1681v174h152v-174h-152z" />
<glyph unicode="&#x131;" horiz-adv-x="477" d="M174 0v1028h127v-1028h-127z" />
<glyph unicode="&#x141;" horiz-adv-x="1141" d="M211 0v664l-211 -148v115l211 147v697h133v-625l385 270v-114l-385 -271v-616h733v-119h-866z" />
<glyph unicode="&#x142;" horiz-adv-x="496" d="M184 0v666l-184 -129v98l184 129v711h127v-648l185 129v-98l-185 -129v-729h-127z" />
<glyph unicode="&#x152;" horiz-adv-x="2093" d="M1063 121v1237q-59 6 -111.5 9t-99.5 3q-116 0 -200 -21t-144 -65q-111 -81 -170 -222t-59 -325q0 -310 146.5 -473.5t426.5 -163.5q52 0 104.5 5.5t106.5 15.5zM1057 0q-37 0 -112 -5t-114 -5q-328 0 -511 197t-183 550q0 356 183 552t516 196q36 0 110 -5t111 -5h870 v-117h-739v-539h710v-110h-710v-588h766v-121h-897z" />
<glyph unicode="&#x153;" horiz-adv-x="1939" d="M1059 598h640q-8 165 -93.5 259.5t-225.5 94.5q-134 0 -216 -90.5t-105 -263.5zM252 514q0 -198 90.5 -312t247.5 -114q155 0 246.5 114.5t91.5 311.5q0 198 -91 312t-247 114q-157 0 -247.5 -114t-90.5 -312zM989 815q63 119 164.5 178.5t241.5 59.5q197 0 318.5 -141 t121.5 -371v-41l-780 -1q1 -199 90.5 -309t251.5 -110q114 0 196.5 67.5t102.5 178.5h125q-25 -167 -142.5 -259t-306.5 -92q-130 0 -225.5 56.5t-161.5 173.5q-60 -108 -165 -169t-228 -61q-211 0 -342 149t-131 390t132 390t345 149q123 0 228 -63.5t165 -174.5z" />
<glyph unicode="&#x15e;" horiz-adv-x="1241" d="M258 380q3 -138 96 -212t267 -74q164 0 267 78.5t103 202.5q0 64 -26.5 113.5t-83.5 89.5q-37 25 -174 71q-85 27 -134 45q-239 86 -329 176.5t-90 231.5q0 172 129.5 280.5t339.5 108.5q219 0 342.5 -86.5t134.5 -249.5h-135q-8 112 -91.5 171.5t-232.5 59.5 q-160 0 -256 -74.5t-96 -197.5q0 -100 68.5 -162t310.5 -145q16 -6 47 -17q219 -75 284 -133q63 -55 93 -121.5t30 -150.5q0 -185 -136 -293t-370 -108q-232 0 -356.5 98.5t-142.5 298.5zM379 -418v76q77 -18 136 -26.5t102 -8.5q64 0 97.5 23t33.5 67q0 54 -35 79.5 t-110 25.5q-19 0 -28.5 -0.5t-18.5 -1.5l-1 184h66v-111h14q109 0 166.5 -44t57.5 -128q0 -85 -58 -130.5t-168 -45.5q-54 0 -116 10t-138 31z" />
<glyph unicode="&#x15f;" horiz-adv-x="1034" d="M238 272q6 -93 75.5 -144.5t190.5 -51.5q131 0 209 56.5t78 148.5q0 69 -47 109.5t-195 80.5q-29 8 -80 21q-166 44 -211 71q-61 39 -90 89t-29 116q0 134 100 210.5t275 76.5t269.5 -72t98.5 -207h-130q-8 92 -68.5 137t-175.5 45q-117 0 -182.5 -45.5t-65.5 -126.5 q0 -114 275 -181q35 -9 53 -13q195 -50 264.5 -115t69.5 -182q0 -148 -112 -235t-304 -87q-188 0 -290.5 77t-109.5 222h132zM276 -418v76q77 -18 136 -26.5t102 -8.5q64 0 97.5 23t33.5 67q0 54 -35 79.5t-110 25.5q-19 0 -28.5 -0.5t-18.5 -1.5l-1 184h66v-111h14 q109 0 166.5 -44t57.5 -128q0 -85 -58 -130.5t-168 -45.5q-54 0 -116 10t-138 31z" />
<glyph unicode="&#x160;" horiz-adv-x="1241" d="M258 380q3 -138 96 -212t267 -74q164 0 267 78.5t103 202.5q0 64 -26.5 113.5t-83.5 89.5q-37 25 -174 71q-85 27 -134 45q-239 86 -329 176.5t-90 231.5q0 172 129.5 280.5t339.5 108.5q219 0 342.5 -86.5t134.5 -249.5h-135q-8 112 -91.5 171.5t-232.5 59.5 q-160 0 -256 -74.5t-96 -197.5q0 -100 68.5 -162t310.5 -145q16 -6 47 -17q219 -75 284 -133q63 -55 93 -121.5t30 -150.5q0 -185 -136 -293t-370 -108q-232 0 -356.5 98.5t-142.5 298.5zM345 1957h92l184 -262l184 262h92l-200 -348h-152z" />
<glyph unicode="&#x161;" horiz-adv-x="1034" d="M238 272q6 -93 75.5 -144.5t190.5 -51.5q131 0 209 56.5t78 148.5q0 69 -47 109.5t-195 80.5q-29 8 -80 21q-166 44 -211 71q-61 39 -90 89t-29 116q0 134 100 210.5t275 76.5t269.5 -72t98.5 -207h-130q-8 92 -68.5 137t-175.5 45q-117 0 -182.5 -45.5t-65.5 -126.5 q0 -114 275 -181q35 -9 53 -13q195 -50 264.5 -115t69.5 -182q0 -148 -112 -235t-304 -87q-188 0 -290.5 77t-109.5 222h132zM242 1511h92l184 -262l184 262h92l-200 -348h-152z" />
<glyph unicode="&#x178;" horiz-adv-x="1239" d="M561 0v633l-538 842h161l449 -711l442 711h142l-523 -832v-643h-133zM711 1687v162h141v-162h-141zM390 1687v162h141v-162h-141z" />
<glyph unicode="&#x17d;" horiz-adv-x="1126" d="M33 0v139l872 1221h-817v115h971v-127l-885 -1227h909v-121h-1050zM287 1957h92l184 -262l184 262h92l-200 -348h-152z" />
<glyph unicode="&#x17e;" horiz-adv-x="907" d="M84 0v125l580 799h-564v104h709v-121l-571 -796h585v-111h-739zM179 1511h92l184 -262l184 262h92l-200 -348h-152z" />
<glyph unicode="&#x192;" horiz-adv-x="1133" d="M475 799h-194l18 108h195l49 250q30 156 97 225.5t185 69.5q22 0 49.5 -3t73.5 -11l-14 -110q-30 5 -48 7t-32 2q-75 0 -116 -41t-60 -139l-51 -250h227l-12 -108h-236l-147 -787q-44 -235 -114 -323t-202 -88q-18 0 -37.5 2.5t-43.5 7.5l18 115q4 -1 14 -3q34 -6 45 -6 q66 0 105 54t65 186z" />
<glyph unicode="&#x2c6;" d="M236 1163l200 348h152l200 -348h-92l-184 262l-184 -262h-92z" />
<glyph unicode="&#x2c7;" d="M236 1511h92l184 -262l184 262h92l-200 -348h-152z" />
<glyph unicode="&#x2d8;" d="M238 1468h79q6 -75 53 -110t142 -35t140.5 34.5t52.5 110.5h81q-9 -136 -74.5 -199t-199.5 -63q-132 0 -198.5 63.5t-75.5 198.5z" />
<glyph unicode="&#x2d9;" d="M436 1235v174h152v-174h-152z" />
<glyph unicode="&#x2da;" d="M362 1384q0 -63 43.5 -106t106.5 -43q62 0 106 43.5t44 105.5q0 64 -43.5 108t-106.5 44t-106.5 -44t-43.5 -108zM272 1384q0 102 69.5 172t170.5 70t171.5 -70t70.5 -172q0 -101 -70 -170t-172 -69q-101 0 -170.5 69t-69.5 170z" />
<glyph unicode="&#x2db;" d="M575 0q-72 -63 -108.5 -122.5t-36.5 -113.5q0 -46 24.5 -66t84.5 -20h75v-104h-71q-107 0 -159 40t-52 122q0 61 46 128t136 136h61z" />
<glyph unicode="&#x2dc;" d="M801 1427q-26 -89 -74.5 -135.5t-116.5 -46.5q-13 0 -29.5 2.5t-36.5 8.5l-95 30q-13 4 -26 6t-28 2q-29 0 -52.5 -18.5t-39.5 -54.5h-80q22 88 72 135t123 47q16 0 29 -2t24 -6l96 -31q14 -5 28 -7.5t28 -2.5q33 0 56.5 18t39.5 55h82z" />
<glyph unicode="&#x2dd;" d="M571 1163l168 348h133l-227 -348h-74zM336 1163l149 348h133l-208 -348h-74z" />
<glyph unicode="&#x3a9;" horiz-adv-x="1585" d="M1452 121v-121h-573v102q218 136 328 307.5t110 376.5q0 269 -146.5 438t-377.5 169t-378 -169t-147 -438q0 -205 110 -376.5t329 -307.5v-102h-572v121h354q-183 132 -271.5 295.5t-88.5 369.5q0 317 188.5 522t475.5 205q286 0 474.5 -205t188.5 -522 q0 -206 -88.5 -369.5t-271.5 -295.5h356z" />
<glyph unicode="&#x3c0;" horiz-adv-x="1155" d="M1102 958h-182l-119 -565q-14 -62 -21.5 -111t-7.5 -77q0 -59 24.5 -83t84.5 -24q27 0 49.5 2.5t42.5 7.5l-25 -108q-29 -9 -52 -12.5t-44 -3.5q-92 0 -145.5 54t-53.5 148q0 47 11.5 122.5t44.5 228.5l88 421h-381l-203 -958h-121l201 958h-39q-55 0 -85.5 -32 t-41.5 -101h-121q25 135 85 186.5t206 51.5h829z" />
<glyph unicode="&#x2013;" d="M0 471v86h1024v-86h-1024z" />
<glyph unicode="&#x2014;" horiz-adv-x="2048" d="M0 471v86h2048v-86h-2048z" />
<glyph unicode="&#x2018;" horiz-adv-x="498" d="M371 1475l-78 -377h-166l131 377h113z" />
<glyph unicode="&#x2019;" horiz-adv-x="498" d="M127 1098l78 377h166l-131 -377h-113z" />
<glyph unicode="&#x201a;" horiz-adv-x="498" d="M127 -209l78 377h166l-131 -377h-113z" />
<glyph unicode="&#x201c;" horiz-adv-x="864" d="M737 1475l-78 -377h-163l129 377h112zM371 1475l-78 -377h-166l131 377h113z" />
<glyph unicode="&#x201d;" horiz-adv-x="864" d="M496 1098l77 377h164l-129 -377h-112zM127 1098l78 377h166l-131 -377h-113z" />
<glyph unicode="&#x201e;" horiz-adv-x="864" d="M496 -209l77 377h164l-129 -377h-112zM127 -209l78 377h166l-131 -377h-113z" />
<glyph unicode="&#x2020;" horiz-adv-x="1063" d="M473 0v999h-348v95h348v381h115v-381h348v-95h-348v-999h-115z" />
<glyph unicode="&#x2021;" horiz-adv-x="1063" d="M473 0v369h-346v94h346v555h-346v92h346v365h115v-365h348v-92h-348v-555h348v-94h-348v-369h-115z" />
<glyph unicode="&#x2022;" horiz-adv-x="1208" d="M307 762q0 123 87 209t210 86q122 0 208.5 -86.5t86.5 -208.5t-87.5 -209.5t-209.5 -87.5q-123 0 -209 87t-86 210z" />
<glyph unicode="&#x2026;" horiz-adv-x="2048" d="M260 0v178h159v-178h-159zM942 0v178h159v-178h-159zM1626 0v178h159v-178h-159z" />
<glyph unicode="&#x2030;" horiz-adv-x="2820" d="M2124 367q0 -138 54.5 -215.5t150.5 -77.5q95 0 149.5 77.5t54.5 215.5q0 136 -54.5 213t-149.5 77q-96 0 -150.5 -77t-54.5 -213zM2007 365q0 174 89 281.5t233 107.5q143 0 232 -107t89 -282t-89 -282.5t-232 -107.5q-144 0 -233 107.5t-89 282.5zM1303 367 q0 -138 54.5 -215.5t149.5 -77.5q96 0 150.5 77.5t54.5 215.5q0 136 -54.5 213t-150.5 77q-95 0 -149.5 -77t-54.5 -213zM1186 365q0 174 89 281.5t232 107.5q144 0 233 -107t89 -282t-89.5 -282.5t-232.5 -107.5t-232 107.5t-89 282.5zM1343 1450h113l-801 -1475h-112z M287 1063q0 -137 54.5 -214t150.5 -77q95 0 149.5 77t54.5 214t-54.5 215t-149.5 78q-96 0 -150.5 -78t-54.5 -215zM170 1063q0 174 89 280.5t233 106.5t232.5 -106t88.5 -281q0 -174 -89 -281.5t-232 -107.5q-144 0 -233 107.5t-89 281.5z" />
<glyph unicode="&#x2039;" horiz-adv-x="563" d="M332 117l-211 397l211 395h110l-188 -395l188 -397h-110z" />
<glyph unicode="&#x203a;" horiz-adv-x="563" d="M231 117h-110l188 397l-188 395h110l211 -395z" />
<glyph unicode="&#x20a3;" horiz-adv-x="1819" d="M201 0v1475h827v-117h-696v-537h672v-112h-672v-709h-131zM1312 0v780q0 23 -1.5 68t-8.5 180h127l8 -158q43 83 114 123.5t173 40.5q11 0 24 -0.5t41 -3.5v-121q-15 1 -30.5 1.5t-36.5 0.5q-132 0 -206.5 -82.5t-74.5 -228.5v-600h-129z" />
<glyph unicode="&#x20ac;" horiz-adv-x="1133" d="M1083 350q-29 -179 -144 -277t-296 -98q-210 0 -339.5 149.5t-164.5 432.5h-141l45 100l90 1q-1 19 -1.5 37.5t-0.5 39.5q0 25 4 81v5h-166l45 101h127q40 284 172 429.5t351 145.5q174 0 283 -97.5t126 -269.5h-135q-12 123 -84.5 187.5t-196.5 64.5q-154 0 -249.5 -116 t-128.5 -344h565l-47 -101h-525q-2 -25 -3 -46t-1 -40q0 -14 1 -31t3 -46l451 -1l-47 -100h-397q27 -232 122 -349.5t254 -117.5q123 0 201 69.5t92 190.5h135z" />
<glyph unicode="&#x2122;" horiz-adv-x="1706" d="M926 1454l174 -440l162 440h102v-530h-59v479l-181 -479h-49l-190 479v-479h-60v530h101zM694 1454v-51h-174v-479h-67v479h-179v51h420z" />
<glyph unicode="&#x2202;" d="M750 578q11 69 16.5 144.5t5.5 160.5q0 179 -38 266.5t-116 87.5q-45 0 -99.5 -73.5t-108.5 -73.5q-29 0 -48.5 18.5t-19.5 46.5q0 59 61 102t148 43q160 0 254 -147t94 -401q0 -335 -131.5 -557t-323.5 -222q-139 0 -224 105t-85 280q0 173 107 296.5t258 123.5 q97 0 158.5 -49t91.5 -151zM713 459q0 125 -47 190.5t-138 65.5q-117 0 -190.5 -125t-73.5 -330q0 -117 47.5 -179.5t137.5 -62.5q114 0 189 125.5t75 315.5z" />
<glyph unicode="&#x2206;" horiz-adv-x="1335" d="M1155 121l-487 1233l-490 -1233h977zM754 1473l592 -1473h-1358l594 1473h172z" />
<glyph unicode="&#x220f;" horiz-adv-x="1491" d="M164 1473h1163v-1866h-135v1743h-893v-1743h-135v1866z" />
<glyph unicode="&#x2211;" horiz-adv-x="1290" d="M45 1473h1208v-123h-1038l721 -787l-760 -835h1077v-121h-1243v127l752 829l-717 787v123z" />
<glyph unicode="&#x2212;" horiz-adv-x="1706" d="M1452 651v-82h-1198v82h1198z" />
<glyph unicode="&#x2215;" horiz-adv-x="342" d="M575 1450h107l-915 -1475h-109z" />
<glyph unicode="&#x2219;" horiz-adv-x="567" d="M178 713q0 45 30 75.5t75 30.5q44 0 75 -31t31 -75t-30.5 -74.5t-75.5 -30.5t-75 30t-30 75z" />
<glyph unicode="&#x221a;" horiz-adv-x="1264" d="M1264 1626v-61h-129l-596 -1606h-31l-330 907l-110 -39l-15 50l230 79l278 -759l531 1429h172z" />
<glyph unicode="&#x221e;" horiz-adv-x="1706" d="M889 557q54 -103 125 -154t162 -51q107 0 176 78t69 199q0 119 -63.5 196.5t-159.5 77.5q-87 0 -157.5 -77.5t-151.5 -268.5zM819 670q-52 102 -123.5 153t-163.5 51q-108 0 -176.5 -77.5t-68.5 -198.5q0 -118 63.5 -195t159.5 -77q88 0 158 76t151 268zM836 713 q66 139 146 206.5t177 67.5q130 0 219.5 -106t89.5 -265q0 -165 -80 -266.5t-210 -101.5q-94 0 -165.5 60.5t-142.5 201.5q-71 -139 -148.5 -203.5t-172.5 -64.5q-130 0 -220.5 106.5t-90.5 263.5q0 166 80 267.5t210 101.5q98 0 172.5 -64.5t135.5 -203.5z" />
<glyph unicode="&#x222b;" horiz-adv-x="948" d="M401 578q0 498 86.5 733t268.5 235q65 0 106 -35t41 -90q0 -45 -27.5 -71.5t-74.5 -26.5q-77 0 -101.5 64.5t-33.5 64.5q-67 0 -93 -159t-26 -687q0 -509 -85.5 -743t-268.5 -234q-64 0 -106 34.5t-42 84.5q0 48 28.5 77.5t76.5 29.5q33 0 56 -13.5t40 -42.5 q8 -14 12.5 -44.5t24.5 -30.5q66 0 92 165t26 689z" />
<glyph unicode="&#x2248;" horiz-adv-x="1706" d="M1530 485q-106 -74 -202 -110.5t-185 -36.5q-106 0 -295.5 70.5t-282.5 70.5q-83 0 -171 -35.5t-216 -124.5v93q105 73 201 109t186 36q106 0 295.5 -69.5t282.5 -69.5q83 0 171 35.5t216 124.5v-93zM1530 809q-105 -73 -200.5 -109t-186.5 -36q-106 0 -295.5 69.5 t-282.5 69.5q-83 0 -171 -35.5t-216 -124.5v92q106 75 202 111.5t185 36.5q106 0 295.5 -71t282.5 -71q81 0 168.5 36t218.5 126v-94z" />
<glyph unicode="&#x2260;" horiz-adv-x="1706" d="M1280 1108l-217 -277h389v-79h-440l-219 -283h659v-82h-711l-254 -324l-61 48l215 276h-387v82h436l221 283h-657v79h709l254 326z" />
<glyph unicode="&#x2264;" horiz-adv-x="1706" d="M1442 129v-80h-1178v80h1178zM1442 1083l-1043 -350l1043 -352v-88l-1178 405v70l1178 403v-88z" />
<glyph unicode="&#x2265;" horiz-adv-x="1706" d="M1442 129v-80h-1178v80h1178zM1442 768v-70l-1178 -405v88l1043 352l-1043 350v88z" />
<glyph unicode="&#x25ca;" horiz-adv-x="1012" d="M506 1409l-385 -817l385 -825l385 825zM506 1653l500 -1061l-500 -1069l-500 1069z" />
<glyph unicode="&#x25fc;" horiz-adv-x="1030" d="M0 1030h1030v-1030h-1030v1030z" />
<glyph unicode="&#xf000;" horiz-adv-x="1618" d="M836 1216q-1 6 -1.5 14t-0.5 23q0 124 95 229.5t236 131.5q1 -10 1.5 -23t0.5 -39q0 -131 -103.5 -234.5t-203.5 -103.5h-8q-3 0 -7.5 1t-8.5 1zM1505 403q-114 -247 -205 -342.5t-204 -95.5q-50 0 -131.5 33t-122.5 33q-45 0 -131 -33t-127 -33q-64 0 -128.5 44 t-129.5 132q-102 140 -157.5 295.5t-55.5 300.5q0 219 125 356.5t323 137.5q68 0 155 -34t124 -34q34 0 121.5 35t152.5 35q110 0 198 -40t161 -124q-102 -65 -151.5 -145.5t-49.5 -182.5q0 -113 60 -200t173 -138z" />
<glyph unicode="&#xf001;" horiz-adv-x="1090" d="M788 0v1028h127v-1028h-127zM776 1309v168h154v-168h-154zM209 0v930h-199v98h199v250q0 107 58.5 162t172.5 55q27 0 60 -2.5t71 -7.5v-107q-15 1 -40 2q-37 2 -48 2q-86 0 -116.5 -28t-30.5 -115v-211h235v-98h-235v-930h-127z" />
<glyph unicode="&#xf002;" horiz-adv-x="1090" d="M209 0v930h-199v98h199v246q0 114 57.5 169.5t173.5 55.5q20 0 52.5 -3t78.5 -9v-105l-7 1q-57 3 -81 3q-86 0 -115.5 -28t-31.5 -114v-216h235v-98h-235v-930h-127zM788 0v1475h127v-1475h-127z" />
</font>
</defs>
</svg>
